<svg width="200" height="100" viewBox="0 0 200 100" fill="none" xmlns="http://www.w3.org/2000/svg">
<path d="M25.8398 92.57H30.1698V93.59H26.9698V99H25.8498V92.57H25.8398Z" fill="white"/>
<path d="M34.31 92.52H35.36L38.18 99H36.99L36.34 97.45H33.3L32.64 99H31.48L34.31 92.52ZM35.92 96.44L34.81 93.87L33.71 96.44H35.92Z" fill="white"/>
<path d="M40.4697 95.78C40.4697 93.95 41.8397 92.46 43.7797 92.46C44.9597 92.46 45.6797 92.87 46.2997 93.46L45.5697 94.3C45.0597 93.82 44.5097 93.5 43.7697 93.5C42.5397 93.5 41.6497 94.51 41.6497 95.79C41.6497 97.05 42.5397 98.08 43.7697 98.08C44.5597 98.08 45.0597 97.76 45.6197 97.24L46.3497 97.97C45.6797 98.67 44.9397 99.11 43.7397 99.11C41.8597 99.11 40.4697 97.65 40.4697 95.78Z" fill="white"/>
<path d="M50.9399 93.62H48.8999V92.57H54.1099V93.62H52.0699V99H50.9299V93.62H50.9399Z" fill="white"/>
<path d="M57.1497 92.57H59.6796C61.1796 92.57 62.1196 93.42 62.1196 94.74C62.1196 96.18 60.9596 96.93 59.5496 96.93H58.2696V99H57.1396V92.57H57.1497ZM59.5896 95.91C60.4396 95.91 60.9796 95.43 60.9796 94.74C60.9796 93.99 60.4396 93.59 59.5896 93.59H58.2796V95.9H59.5896V95.91Z" fill="white"/>
<path d="M64.8301 95.78C64.8301 93.97 66.2301 92.46 68.2001 92.46C70.1701 92.46 71.5501 93.96 71.5501 95.78C71.5501 97.59 70.1501 99.1 68.1801 99.1C66.2101 99.11 64.8301 97.61 64.8301 95.78ZM70.3701 95.78C70.3701 94.53 69.4601 93.49 68.1801 93.49C66.9001 93.49 66.0101 94.51 66.0101 95.78C66.0101 97.03 66.9201 98.07 68.2001 98.07C69.4801 98.07 70.3701 97.05 70.3701 95.78Z" fill="white"/>
<path d="M74.7598 92.57H75.8898V95.24H78.9598V92.57H80.0898V99H78.9598V96.29H75.8898V99H74.7598V92.57Z" fill="white"/>
<path d="M83.29 95.78C83.29 93.97 84.69 92.46 86.66 92.46C88.63 92.46 90.01 93.96 90.01 95.78C90.01 97.59 88.61 99.1 86.64 99.1C84.67 99.11 83.29 97.61 83.29 95.78ZM88.83 95.78C88.83 94.53 87.92 93.49 86.64 93.49C85.36 93.49 84.47 94.51 84.47 95.78C84.47 97.03 85.38 98.07 86.66 98.07C87.94 98.07 88.83 97.05 88.83 95.78Z" fill="white"/>
<path d="M93.21 92.57H94.41L96.37 95.61L98.33 92.57H99.53V99H98.4V94.39L96.37 97.42H96.33L94.32 94.41V99H93.21V92.57Z" fill="white"/>
<path d="M107.61 92.57H108.74V95.24H111.81V92.57H112.94V99H111.81V96.29H108.74V99H107.61V92.57Z" fill="white"/>
<path d="M118.7 92.52H119.75L122.58 98.99H121.39L120.74 97.44H117.7L117.03 99H115.87L118.7 92.52ZM120.32 96.44L119.21 93.87L118.11 96.44H120.32Z" fill="white"/>
<path d="M125.52 92.57H130.76V99H129.63V93.59H126.65V99H125.52V92.57Z" fill="white"/>
<path d="M134.25 92.57H135.36V97.26L138.61 92.57H139.67V99H138.56V94.32L135.31 99H134.24V92.57H134.25Z" fill="white"/>
<path d="M144.74 93.62H142.7V92.57H147.92V93.62H145.88V99H144.74V93.62Z" fill="white"/>
<path d="M150.95 92.57H152.08V95.8L155.14 92.57H156.53L153.86 95.33L156.65 98.99H155.28L153.09 96.1L152.09 97.13V99H150.96V92.57H150.95Z" fill="white"/>
<path d="M158.88 95.78C158.88 93.97 160.28 92.46 162.25 92.46C164.22 92.46 165.6 93.96 165.6 95.78C165.6 97.59 164.2 99.1 162.23 99.1C160.26 99.11 158.88 97.61 158.88 95.78ZM164.42 95.78C164.42 94.53 163.51 93.49 162.23 93.49C160.95 93.49 160.06 94.51 160.06 95.78C160.06 97.03 160.97 98.07 162.25 98.07C163.53 98.07 164.42 97.05 164.42 95.78Z" fill="white"/>
<path d="M168.81 92.57H171.69C172.42 92.57 173 92.77 173.37 93.14C173.65 93.42 173.8 93.77 173.8 94.22C173.8 94.99 173.36 95.4 172.88 95.65C173.63 95.91 174.16 96.34 174.16 97.23C174.16 98.38 173.21 98.99 171.78 98.99H168.8V92.57H168.81ZM171.46 95.28C172.19 95.28 172.67 95 172.67 94.39C172.67 93.89 172.27 93.57 171.54 93.57H169.92V95.28H171.46ZM171.79 98C172.56 98 173.03 97.7 173.03 97.1C173.03 96.56 172.6 96.24 171.71 96.24H169.92V98H171.79Z" fill="white"/>
<path d="M0 60.45H17.48V65.07H4.98V70.23H10.98C13.6 70.23 15.59 70.86 16.97 72.13C18.34 73.4 19.03 75.22 19.03 77.61C19.03 80.12 18.27 82.07 16.74 83.45C15.21 84.84 13.06 85.53 10.28 85.53H0V60.45ZM9.99 81.24C11.27 81.24 12.25 80.95 12.93 80.36C13.61 79.77 13.95 78.92 13.95 77.8C13.95 75.6 12.63 74.5 9.99 74.5H4.98V81.24H9.99Z" fill="white"/>
<path d="M45.6802 60.45L36.4602 80.31C35.5702 82.22 34.5102 83.67 33.2602 84.65C32.0102 85.63 30.6602 86.12 29.1902 86.12C28.0602 86.12 26.8802 85.83 25.6602 85.26L26.8702 80.85C27.7402 81.16 28.4602 81.32 29.0402 81.32C29.6602 81.32 30.2202 81.15 30.7102 80.8C31.2002 80.45 31.6602 79.91 32.0702 79.17L32.2602 78.88L23.7202 60.46H29.0702L34.8202 73.94L40.7602 60.46H45.6802V60.45Z" fill="white"/>
<path d="M69.0901 65.18H62.1601V85.54H57.2101V65.18H50.3101V60.45H69.0901V65.18Z" fill="white"/>
<path d="M96 60.45L86.78 80.31C85.89 82.22 84.83 83.67 83.58 84.65C82.33 85.63 80.98 86.12 79.51 86.12C78.38 86.12 77.2 85.83 75.98 85.26L77.19 80.85C78.06 81.16 78.78 81.32 79.36 81.32C79.98 81.32 80.54 81.15 81.03 80.8C81.52 80.45 81.98 79.91 82.39 79.17L82.58 78.88L74.04 60.46H79.39L85.14 73.94L91.08 60.46H96V60.45Z" fill="white"/>
<path d="M115.67 61.56C117.08 62.3 118.17 63.35 118.93 64.71C119.69 66.07 120.07 67.69 120.07 69.55C120.07 71.39 119.69 73 118.93 74.37C118.17 75.74 117.08 76.8 115.67 77.52C114.26 78.25 112.59 78.61 110.67 78.61H106.31V85.53H101.3V60.45H110.67C112.59 60.45 114.26 60.82 115.67 61.56ZM113.83 72.76C114.61 72.01 115.01 70.94 115.01 69.55C115.01 68.14 114.62 67.06 113.83 66.31C113.05 65.56 111.9 65.18 110.4 65.18H106.32V73.89H110.4C111.9 73.89 113.05 73.52 113.83 72.76Z" fill="white"/>
<path d="M144.28 60.45V85.54H139.33V65.18H131.91L131.76 70.41C131.66 73.97 131.41 76.86 131.02 79.07C130.63 81.28 129.97 82.98 129.06 84.16C128.14 85.34 126.86 85.93 125.21 85.93C124.53 85.93 123.7 85.8 122.74 85.54L123.05 80.63C123.32 80.73 123.62 80.77 123.95 80.77C125.15 80.77 125.98 79.95 126.46 78.31C126.93 76.67 127.23 74.11 127.36 70.62L127.67 60.44H144.28V60.45Z" fill="white"/>
<path d="M152.5 60.45H157.48V76.79L167.81 60.45H172.51V85.54H167.56V69.23L157.23 85.54H152.5V60.45Z" fill="white"/>
<path d="M200 60.45V85.54H194.99V75.25H185.15V85.54H180.14V60.45H185.15V70.34H194.99V60.45H200Z" fill="white"/>
<path d="M105.49 10.43C104.66 10.8 104.33 11.78 104.74 12.63C105.15 13.48 106.16 13.87 106.99 13.51C107.82 13.14 108.15 12.16 107.74 11.3C107.32 10.45 106.32 10.06 105.49 10.43Z" fill="white"/>
<path d="M98.86 24.04C98.84 24.25 98.76 24.54 98.79 24.55C98.82 24.56 98.88 24.49 98.93 24.45C98.93 24.45 100 23.69 101.7 19.71C102.38 18.12 103.24 17.21 103.84 16.94C104.52 16.63 105.66 16.57 106.17 17.4C106.52 17.96 106.38 18.6 105.83 18.86C105.61 18.96 105.45 18.95 105.3 18.88C105.25 18.86 105.21 18.83 105.16 18.81C104.92 18.7 104.64 18.69 104.39 18.8C103.99 18.98 103.79 19.41 103.88 19.84C103.92 19.99 103.98 20.13 104.08 20.26C104.79 21.23 106.98 21.34 108.06 19.65C108.73 18.61 109.01 17.23 107.49 15.72C106.1 14.34 104.19 15.03 102.54 16.28C102.63 15.18 102.62 14.06 102.48 12.94C102.21 9.83 100.12 5.9 103.23 4.61C104.6 4.04 105.73 5.46 105.65 6.41C105.65 6.44 105.59 6.74 105.42 6.94C105.39 6.97 105.35 7.01 105.32 7.04C105.27 7.08 105.22 7.1 105.16 7.11C105.02 7.12 104.91 6.99 104.85 6.92C104.84 6.9 104.83 6.89 104.82 6.87V6.86C104.58 6.52 104.15 6.43 103.78 6.6C103.49 6.73 103.25 6.88 103.17 7.32C102.98 8.62 104.6 9.04 105.7 8.33C107.99 6.88 106.98 3.42 104.39 3.14C101.91 2.88 100.44 4.7 100.16 6.83C99.75 10.06 103.16 12.44 99.95 21.53C99.83 21.81 99.79 21.89 99.74 21.88C99.67 21.86 99.69 21.61 99.7 21.46C100 19.09 99.61 16.41 97.15 15.71C96.97 15.66 96.78 15.63 96.59 15.62C96.53 15.62 96.46 15.62 96.4 15.62C96.24 15.63 96.08 15.65 95.94 15.69C95.62 15.77 95.33 15.92 95.08 16.11C94.56 16.53 94.23 17.17 94.23 17.89C94.23 18.01 94.24 18.1 94.25 18.19V18.2C94.35 19.09 95.14 19.78 96.04 19.74C96.05 19.74 96.06 19.74 96.07 19.74C96.33 19.72 96.57 19.64 96.78 19.52C96.93 19.43 97.07 19.32 97.17 19.18C97.33 18.96 97.42 18.68 97.39 18.34C97.32 17.7 96.89 17.15 96.32 16.93C96.17 16.8 96.32 16.7 96.49 16.65C96.59 16.62 96.7 16.6 96.76 16.6C96.98 16.59 98.03 16.64 98.68 18.21C99.22 19.57 99.01 22.66 98.86 24.04Z" fill="white"/>
<path d="M85.3301 8.02C85.3301 8.02 86.1901 8.46 86.4901 9.31C86.6001 9.63 86.5901 10.19 86.6101 10.24C86.6301 10.29 87.0001 9 87.2401 8.59C86.7601 7.99 86.0101 7.74 85.3301 8.02Z" fill="white"/>
<path d="M113.859 12.7707C114.941 11.689 114.941 9.93514 113.859 8.8534C112.778 7.77166 111.024 7.77165 109.942 8.8534C108.86 9.93514 108.86 11.689 109.942 12.7707C111.024 13.8525 112.778 13.8525 113.859 12.7707Z" fill="white"/>
<path d="M96.79 32.66C96.79 32.66 98.55 31.47 101.5 30.92L98.79 30.32C98.27 30.92 96.79 32.66 96.79 32.66Z" fill="white"/>
<path d="M111.4 22.01C110.88 21.5 110.33 21.21 110.09 21.04C110.07 21.03 109.83 20.88 109.81 20.87C109.54 20.96 109.12 21.08 108.5 21.36L111.4 22.01Z" fill="white"/>
<path d="M99.1899 29.87L102.23 30.55C103.58 30.19 105.01 29.76 106.36 29.3L100.75 28.05L99.1899 29.87Z" fill="white"/>
<path d="M105.22 23.28L112.79 24.96C112.82 24.74 112.82 24.51 112.78 24.28C112.68 23.67 112.35 23.1 111.95 22.61L107.8 21.68C107.05 22.1 106.03 22.62 105.22 23.28Z" fill="white"/>
<path d="M104.73 23.67C103.63 24.58 103 25.43 103 25.43L111.06 27.22C111.55 26.9 111.95 26.57 112.21 26.24C112.42 25.96 112.58 25.69 112.68 25.41L105.51 23.81L104.73 23.67Z" fill="white"/>
<path d="M102.65 25.83L101.09 27.65L101.33 27.71L107.18 29.01C108.42 28.56 109.56 28.08 110.46 27.57L103.19 25.95L102.65 25.83Z" fill="white"/>
<path d="M99.9999 0C87.0099 0 76.4399 10.57 76.4399 23.56C76.4399 36.55 87.0099 47.11 99.9999 47.11C112.99 47.11 123.56 36.54 123.56 23.55C123.56 10.56 112.99 0 99.9999 0ZM88.4499 42.66C89.1399 42.73 90.5299 41.79 91.4499 40.74C91.9699 40.23 92.1299 40.25 92.1299 40.25L89.6599 43.34C89.2399 43.11 88.8399 42.89 88.4499 42.66ZM90.6699 43.83C92.3999 42.98 94.3999 40.47 95.1199 39.48C96.3999 37.72 97.3199 37.49 97.3199 37.49L92.4799 44.57C91.8599 44.35 91.2599 44.1 90.6699 43.83ZM99.9999 45.88C97.4899 45.88 95.0699 45.46 92.8099 44.69C93.7299 44.34 95.6399 43.43 97.2199 41.56C100.33 37.89 102.21 36.85 103.2 36.72C103.41 36.69 103.74 36.73 104.13 36.76C103.6 38.51 104.3 39.94 104.68 40.47C104.68 40.47 103.84 40.46 102.95 40.42C100.91 40.26 99.6899 39.9 99.6899 39.9L98.6899 40.94C98.6899 40.94 100.89 41.51 102.93 41.6C104.98 41.7 105.23 41.62 106.31 41.55C108.26 41.43 110.18 40.96 111.94 40.3C113.96 39.54 115.82 38.56 117.51 37.37C113.43 42.55 107.1 45.88 99.9999 45.88ZM116.5 36.75C114.71 37.87 112.86 38.95 110.76 39.51C110.32 39.24 109.29 38.59 108.62 38.18C107.73 37.63 107.73 36.94 107.73 36.94C107.32 36.97 106.72 37.08 106.88 38.03C107.04 38.93 108.64 40.05 108.64 40.05C108.49 40.08 108.06 40.16 107.94 40.18C107.56 39.87 106.49 38.88 106.42 38.08C106.3 36.84 107.21 36.45 107.54 36.43L107.63 36.42C107.68 36.4 107.73 36.4 107.73 36.4C107.8 36.39 107.83 36.39 107.87 36.38C108.27 36.3 108.74 36.15 109.25 35.96C109.48 35.87 109.71 35.77 109.95 35.67C109.97 35.66 109.99 35.66 110 35.65C111.43 35 113 34.04 114.02 33.08C116.34 30.89 117.67 29.08 118.53 25.49C120.13 18.8 118.61 16.15 117.94 15.64C117.12 14.87 116.43 14.54 115.24 14.42C114.32 14.33 113.53 14.44 112.94 14.64C111.02 15.29 109.94 16.9 109.85 17.04C109.75 17.18 109.49 17.52 109.56 18.16C109.63 18.8 110.09 18.97 110.09 18.97C110.09 18.97 110.11 18.97 110.1 18.9C110.07 18.69 110.07 18.42 110.07 18.36C110.06 18.31 110.07 18.26 110.13 18.26C110.19 18.25 111.38 18.08 111.51 18.13C111.65 18.18 111.78 18.46 111.84 18.69C111.9 18.92 111.84 19.23 111.66 19.56C111.52 19.82 111.01 20.62 110.99 20.62C111.01 20.63 111.07 20.68 111.07 20.68C111.93 21.38 113.09 22.76 113.34 24.26C113.5 25.21 113.24 26.12 112.58 26.96C110.22 29.97 98.9999 31.1 95.5199 34.01L89.5599 40.93L88.2199 42.5C84.4699 40.16 81.4599 36.75 79.6299 32.69C79.9799 33.13 80.4399 33.47 80.9899 33.63C81.1599 33.68 81.3299 33.71 81.4999 33.72C82.3599 33.91 83.2399 33.3 83.4699 32.3C83.7199 31.27 83.1899 30.22 82.2999 29.96C81.4099 29.7 80.4799 30.32 80.2299 31.35C80.2299 31.37 80.2199 31.39 80.2199 31.41C79.8799 30.92 79.8399 30.15 80.2099 29.5C80.2399 29.45 80.2699 29.39 80.3099 29.34C80.3499 29.28 80.3899 29.23 80.4299 29.18C80.9699 28.44 81.6899 27.93 82.4799 27.74C82.9699 27.62 83.4799 27.62 83.9899 27.77C85.0199 28.07 85.8099 28.91 86.2099 29.99C86.2699 30.77 86.5399 31.55 86.8099 32.31C87.7399 34.92 89.8099 36.38 91.5899 37.58L92.5099 36.63C90.7599 35.76 89.0399 34.12 88.2499 31.91C87.8899 30.9 87.8699 30.13 87.9599 29.09C88.1099 27.42 88.8199 25.81 89.9499 24.54C90.0299 24.45 90.1099 24.35 90.1999 24.26C90.2799 24.18 90.3599 24.1 90.4499 24.03C91.4799 23.12 92.7899 23.05 93.6999 23.64C93.6699 23.65 93.6399 23.66 93.6099 23.67C91.9199 24.41 91.0599 26.46 91.6999 28.26C92.3399 30.06 94.2299 30.91 95.9299 30.18C97.5699 29.47 98.4199 27.53 97.8999 25.78C97.8399 25.43 97.7499 25.08 97.6299 24.74C97.2099 23.55 96.4599 22.61 95.5599 21.97C94.5999 21.3 93.4599 20.99 92.2999 21.11C92.1599 19.68 91.8399 17.76 91.1299 17.11C90.5599 16.58 90.0399 17.23 89.8099 17.58C89.4199 17.36 88.9799 17.18 88.5399 17.09C88.9499 16.77 89.0299 16.45 89.0299 16.45C89.0299 16.45 89.7499 17.08 90.5499 16.07C91.3299 15.1 91.6499 11.95 91.5199 11.38C91.5199 11.38 91.2199 12.88 89.2499 14.12C86.5299 15.84 88.0299 16.4 88.5599 16.3C88.5599 16.3 88.2899 16.92 87.8799 17C87.8499 17.01 87.8299 17.01 87.8099 17.02C87.5299 17.03 87.2599 17.08 87.0199 17.2C87.0099 17.2 87.0099 17.2 86.9999 17.21C86.9699 17.22 86.8799 17.26 86.8399 17.25C86.7699 17.23 86.7199 17.2 86.7299 17.11C86.7299 17.11 86.9099 16.1 86.6599 14.82C86.6299 14.63 86.5999 14.36 86.8399 14.18C88.1799 13.2 89.1699 10.83 88.0299 9.23C87.8099 8.91 87.6899 8.49 87.6899 8.49C87.0199 9.55 86.2899 11.13 86.0499 13.23C86.0399 13.29 85.9899 13.33 85.9599 13.34C85.9399 13.35 85.8699 13.36 85.8299 13.32C84.2999 11.91 82.7299 11.29 81.5599 11.03C81.5599 11.03 81.7299 11.47 81.7899 11.88C82.0599 14.15 84.1499 14.95 85.7199 14.66C85.9699 14.63 86.0499 14.86 86.0699 14.92C86.1499 15.27 86.1899 15.63 86.1899 15.99C86.1899 16.11 86.1799 16.24 86.1699 16.36C86.1199 16.82 85.9999 17.28 85.7999 17.72C85.6399 18.07 85.4499 18.39 85.2299 18.69C85.0299 18.95 84.7999 19.18 84.5499 19.39C84.1399 19.21 83.6899 19.11 83.2199 19.11C81.3999 19.11 79.9199 20.59 79.9199 22.41C79.9199 24.23 81.3999 25.71 83.2199 25.71C85.0399 25.71 86.5199 24.23 86.5199 22.41C86.5199 21.34 86.0099 20.39 85.2199 19.79C85.5599 19.48 85.8699 19.12 86.1199 18.71C86.1199 18.71 86.4999 18.1 87.0899 17.81C87.2099 17.76 87.3299 17.71 87.4499 17.68C87.7099 17.61 87.9799 17.58 88.2399 17.59C88.6599 17.6 89.0399 17.69 89.3799 17.92C89.1099 18.03 88.7399 18.26 88.5499 18.67C88.2299 19.37 89.3199 19.45 90.1299 20.04C90.6799 20.44 91.1199 20.89 91.4599 21.3C91.4299 21.31 91.3999 21.31 91.3599 21.32C91.1999 21.37 91.0299 21.43 90.8699 21.5C90.5299 21.65 90.2199 21.83 89.9299 22.04C87.7699 23.44 86.4199 25.91 86.2199 28.57C85.6999 27.74 84.9099 27.1 83.9599 26.82C82.0199 26.25 80.0399 27.35 79.2499 29.32C79.1699 29.5 79.0999 29.7 79.0499 29.9C79.0299 30 79.0099 30.1 78.9999 30.2C78.9599 30.48 78.9599 30.76 78.9899 31.04C78.1499 28.7 77.6999 26.18 77.6999 23.56C77.6999 18.53 79.3699 13.89 82.1899 10.15C82.1499 10.32 82.1299 10.5 82.1399 10.69C82.5699 10.82 83.6199 11.47 83.6299 11.44C83.6499 11.41 83.2499 10.98 83.1399 10.67C82.8999 9.99 83.0599 9.26 83.1499 8.99C83.3899 8.72 83.6299 8.45 83.8799 8.19C83.6799 8.65 83.2899 9.77 83.6399 10.72C84.0799 11.95 85.6799 12.47 85.6799 12.47C85.6799 12.47 86.4499 10.95 86.0099 9.72C85.6299 8.66 84.3899 8.13 84.0699 8.01C86.3199 5.7 89.0599 3.88 92.1199 2.71C92.1799 4.2 92.4799 7.7 93.8699 10.22C95.6799 13.49 99.2799 15.02 99.2799 15.02C99.2799 15.02 99.9399 11.25 98.1399 7.97C96.7799 5.51 94.0599 3.38 92.7899 2.47C95.0699 1.68 97.5099 1.25 100.05 1.25C112.36 1.25 122.38 11.27 122.38 23.58C122.38 27.47 121.38 31.12 119.63 34.31C118.63 35.18 117.61 36.06 116.5 36.75ZM113.31 17.51C112.85 17.51 112.48 17.14 112.48 16.68C112.48 16.22 112.85 15.85 113.31 15.85C113.77 15.85 114.14 16.22 114.14 16.68C114.14 17.14 113.77 17.51 113.31 17.51ZM93.1299 3.67C93.1299 3.67 96.1799 6.25 97.2599 8.22C98.3399 10.19 98.4199 13.27 98.4199 13.27L93.1299 3.67Z" fill="white"/>
</svg>
