<svg width="201" height="99" viewBox="0 0 201 99" fill="none" xmlns="http://www.w3.org/2000/svg">
<path d="M195.273 47.0379V42.4648C197.744 42.3668 199.737 40.3307 199.737 37.8372C199.737 35.2676 197.646 33.1879 195.088 33.1879C192.518 33.1879 190.438 35.2784 190.438 37.8372C190.438 40.3415 192.42 42.3668 194.902 42.4648V47.0379H188.282V14.1114H166.397V4.5078H161.747L138.163 0.0108884L138.076 0L120.088 14.6993L122.767 16.0386V21.8204H119.228V20.4484H122.745V20.0673H119.228V18.8478H118.847V20.0673H111.715V18.8478H111.334V20.0673H104.202V18.8478H103.821V20.0673H96.6891V18.8478H96.308V20.0673H89.1761V18.8478H88.795V20.0673H84.9296L82.5886 12.685L82.545 12.5543H81.2384V10.6815H79.3765V12.5652H16.4197V10.6815H14.5578V12.5652H12.8483V47.0379H6.15195V42.4648C8.62362 42.3668 10.6162 40.3307 10.6162 37.8372C10.6162 35.2676 8.52562 33.1879 5.96685 33.1879C3.40807 33.1879 1.30661 35.2567 1.30661 37.8263C1.30661 40.3307 3.2883 42.3559 5.77086 42.4539V47.027H0V49.8907H201V47.0379H195.273ZM190.819 37.8263C190.819 35.4744 192.736 33.5581 195.088 33.5581C197.439 33.5581 199.356 35.4744 199.356 37.8263C199.356 40.1782 197.439 42.0946 195.088 42.0946C192.736 42.0946 190.819 40.1782 190.819 37.8263ZM121.068 24.0307V28.3099H116.876V24.0307H121.068ZM111.704 20.4593H118.836V21.8313H111.704V20.4593ZM113.599 24.0307V28.3099H109.407V24.0307H113.599ZM104.191 20.4593H111.323V21.8313H104.191V20.4593ZM106.118 24.0307V28.3099H101.926V24.0307H106.118ZM96.6782 20.4593H103.81V21.8313H96.6782V20.4593ZM98.649 24.0307V28.3099H94.4569V24.0307H98.649ZM89.1543 20.4593H96.2862V21.8313H89.1543V20.4593ZM91.1686 24.0307V28.3099H86.9766V24.0307H91.1686ZM88.7732 20.4593V21.8313H85.4849L85.0493 20.4593H88.7732ZM79.7685 11.0626H80.8682V12.5652H79.7685V11.0626ZM79.7685 12.9463H80.8682V14.732H79.7685V12.9463ZM14.9389 11.0626H16.0386V12.5652H14.9389V11.0626ZM14.9389 12.9463H16.0386V14.732H14.9389V12.9463ZM1.6877 37.8263C1.6877 35.4744 3.60406 33.5581 5.95596 33.5581C8.30785 33.5581 10.2242 35.4744 10.2242 37.8263C10.2242 40.1782 8.30785 42.0946 5.95596 42.0946C3.60406 42.0946 1.6877 40.1782 1.6877 37.8263ZM200.619 49.5096H0.381094V47.4081H13.2294V12.9463H14.5578V15.1131H16.4197V12.9463H79.3765V15.1131H81.2384V12.9463H82.2619L85.1473 22.0817L85.1909 22.2124H88.7514V23.6496H86.5628V28.691H91.5171V23.6496H89.1216V22.2124H96.2535V23.6496H94.0323V28.691H98.9865V23.6496H96.6346V22.2124H103.767V23.6496H101.502V28.691H106.456V23.6496H104.148V22.2124H111.28V23.6496H108.971V28.691H113.925V23.6496H111.661V22.2124H118.793V23.6496H116.441V28.691H121.395V23.6496H119.174V22.2124H123.093V15.81L120.731 14.6231L138.174 0.413759L161.704 4.88889H166.005V14.4925H187.89V47.419H200.619V49.5096Z" fill="white" stroke="white" stroke-width="0.4"/>
<path d="M16.1367 47.3646H28.6148V44.9038H16.1367V47.3646ZM16.5178 45.274H28.2446V46.9726H16.5178V45.274Z" fill="white" stroke="white" stroke-width="0.4"/>
<path d="M30.5312 47.3646H43.0094V44.9038H30.5312V47.3646ZM30.9123 45.274H42.6392V46.9726H30.9123V45.274Z" fill="white" stroke="white" stroke-width="0.4"/>
<path d="M44.9146 47.3646H57.3927V44.9038H44.9146V47.3646ZM45.2956 45.274H57.0225V46.9726H45.2956V45.274Z" fill="white" stroke="white" stroke-width="0.4"/>
<path d="M59.2983 47.3646H71.7765V44.9038H59.2983V47.3646ZM59.6794 45.274H71.4063V46.9726H59.6794V45.274Z" fill="white" stroke="white" stroke-width="0.4"/>
<path d="M73.6929 47.3646H86.171V44.9038H73.6929V47.3646ZM74.074 45.274H85.8008V46.9726H74.074V45.274Z" fill="white" stroke="white" stroke-width="0.4"/>
<path d="M88.0762 47.3646H100.554V44.9038H88.0762V47.3646ZM88.4573 45.274H100.173V46.9726H88.4573V45.274Z" fill="white" stroke="white" stroke-width="0.4"/>
<path d="M102.46 47.3646H114.938V44.9038H102.46V47.3646ZM102.841 45.274H114.568V46.9726H102.841V45.274Z" fill="white" stroke="white" stroke-width="0.4"/>
<path d="M116.854 47.3646H129.333V44.9038H116.854V47.3646ZM117.236 45.274H128.962V46.9726H117.236V45.274Z" fill="white" stroke="white" stroke-width="0.4"/>
<path d="M138.903 47.3646H162.215V44.9038H138.903V47.3646ZM139.284 45.274H161.834V46.9726H139.284V45.274Z" fill="white" stroke="white" stroke-width="0.4"/>
<path d="M153.037 42.6063V26.2955H148.083V42.6063H153.037ZM148.453 26.6766H152.645V42.2252H148.453V26.6766Z" fill="white" stroke="white" stroke-width="0.4"/>
<path d="M144.707 42.6063V26.2955H139.752V42.6063H144.707ZM140.134 26.6766H144.326V42.2252H140.134V26.6766Z" fill="white" stroke="white" stroke-width="0.4"/>
<path d="M161.366 42.6063V26.2955H156.412V42.6063H161.366ZM156.782 26.6766H160.974V42.2252H156.782V26.6766Z" fill="white" stroke="white" stroke-width="0.4"/>
<path d="M69.5879 42.6063H73.3226V34.8756H69.5879V42.6063ZM69.969 35.2676H72.9524V42.2361H69.969V35.2676Z" fill="white" stroke="white" stroke-width="0.4"/>
<path d="M66.6043 42.6063V34.8756H62.8696V42.6063H66.6043ZM63.2507 35.2676H66.2341V42.2361H63.2507V35.2676Z" fill="white" stroke="white" stroke-width="0.4"/>
<path d="M59.8862 42.6063V34.8756H56.1406V42.6063H59.8862ZM56.5326 35.2676H59.516V42.2361H56.5326V35.2676Z" fill="white" stroke="white" stroke-width="0.4"/>
<path d="M53.1683 42.6063V34.8756H49.4336V42.6063H53.1683ZM49.8147 35.2676H52.7981V42.2361H49.8147V35.2676Z" fill="white" stroke="white" stroke-width="0.4"/>
<path d="M46.4609 42.6063V34.8756H42.7153V42.6063H46.4609ZM43.0964 35.2676H46.0799V42.2361H43.0964V35.2676Z" fill="white" stroke="white" stroke-width="0.4"/>
<path d="M39.7425 42.6063V34.8756H36.0078V42.6063H39.7425ZM36.378 35.2676H39.3614V42.2361H36.378V35.2676Z" fill="white" stroke="white" stroke-width="0.4"/>
<path d="M33.0248 34.8865H29.29V42.6172H33.0248V34.8865ZM32.6437 42.2361H29.6602V35.2675H32.6437V42.2361Z" fill="white" stroke="white" stroke-width="0.4"/>
<path d="M26.3065 42.6063V34.8756H22.5718V42.6063H26.3065ZM22.942 35.2676H25.9254V42.2361H22.942V35.2676Z" fill="white" stroke="white" stroke-width="0.4"/>
<path d="M181.619 34.3856V42.1164H185.364V34.3856H181.619ZM184.972 41.7353H181.989V34.7667H184.972V41.7353Z" fill="white" stroke="white" stroke-width="0.4"/>
<path d="M174.9 34.3856V42.1164H178.646V34.3856H174.9ZM178.254 41.7353H175.271V34.7667H178.254V41.7353Z" fill="white" stroke="white" stroke-width="0.4"/>
<path d="M168.182 34.3856V42.1164H171.917V34.3856H168.182ZM171.536 41.7353H168.552V34.7667H171.536V41.7353Z" fill="white" stroke="white" stroke-width="0.4"/>
<path d="M161.943 7.26257H157.174V13.8936H161.943V7.26257ZM161.562 13.5125H157.555V7.64366H161.562V13.5125Z" fill="white" stroke="white" stroke-width="0.4"/>
<path d="M153.167 7.26257H148.398V13.8936H153.167V7.26257ZM152.786 13.5125H148.779V7.64366H152.786V13.5125Z" fill="white" stroke="white" stroke-width="0.4"/>
<path d="M144.402 7.26257H139.633V13.8936H144.402V7.26257ZM144.021 13.5125H140.014V7.64366H144.021V13.5125Z" fill="white" stroke="white" stroke-width="0.4"/>
<path d="M144.402 21.5808V17.3126H139.633V21.5808H144.402ZM140.014 17.6937H144.021V21.2106H140.014V17.6937Z" fill="white" stroke="white" stroke-width="0.4"/>
<path d="M150.728 21.5808V17.3126H148.169V21.5808H150.728ZM148.551 17.6937H150.347V21.2106H148.551V17.6937Z" fill="white" stroke="white" stroke-width="0.4"/>
<path d="M161.965 21.5808V17.3126H152.612V21.5808H161.965ZM152.982 17.6937H161.573V21.2106H152.982V17.6937Z" fill="white" stroke="white" stroke-width="0.4"/>
<path d="M174.9 20.1871V27.9179H178.646V20.1871H174.9ZM178.254 27.5368H175.271V20.5682H178.254V27.5368Z" fill="white" stroke="white" stroke-width="0.4"/>
<path d="M180.312 21.7441V26.3499H182.544V21.7441H180.312ZM182.163 25.9688H180.693V22.1144H182.163V25.9688Z" fill="white" stroke="white" stroke-width="0.4"/>
<path d="M184.275 21.7441V26.3499H186.508V21.7441H184.275ZM186.126 25.9688H184.656V22.1144H186.126V25.9688Z" fill="white" stroke="white" stroke-width="0.4"/>
<path d="M75.0864 21.7441V26.3499H77.3186V21.7441H75.0864ZM76.9375 25.9688H75.4675V22.1144H76.9375V25.9688Z" fill="white" stroke="white" stroke-width="0.4"/>
<path d="M79.0498 26.3499H81.2819V21.7441H79.0498V26.3499ZM79.4309 22.1252H80.9008V25.9797H79.4309V22.1252Z" fill="white" stroke="white" stroke-width="0.4"/>
<path d="M16.779 21.7441H14.5469V26.3499H16.779V21.7441ZM16.3979 25.9688H14.928V22.1144H16.3979V25.9688Z" fill="white" stroke="white" stroke-width="0.4"/>
<path d="M18.5103 21.7441V26.3499H20.7424V21.7441H18.5103ZM20.3613 25.9688H18.8913V22.1144H20.3613V25.9688Z" fill="white" stroke="white" stroke-width="0.4"/>
<path d="M16.779 35.7575H14.5469V40.3742H16.779V35.7575ZM16.3979 39.9931H14.928V36.1386H16.3979V39.9931Z" fill="white" stroke="white" stroke-width="0.4"/>
<path d="M20.7424 40.3742V35.7575H18.5103V40.3742H20.7424ZM18.8913 36.1386H20.3613V39.9931H18.8913V36.1386Z" fill="white" stroke="white" stroke-width="0.4"/>
<path d="M135.561 14.3509H137.793V9.74512H135.561V14.3509ZM135.942 10.1262H137.412V13.9807H135.942V10.1262Z" fill="white" stroke="white" stroke-width="0.4"/>
<path d="M135.561 42.8568H137.793V41.1255H135.561V42.8568ZM135.942 41.5066H137.412V42.4757H135.942V41.5066Z" fill="white" stroke="white" stroke-width="0.4"/>
<path d="M135.561 19.1418H137.793V17.4106H135.561V19.1418ZM135.942 17.7917H137.412V18.7607H135.942V17.7917Z" fill="white" stroke="white" stroke-width="0.4"/>
<path d="M130.781 40.1129H133.013V35.4962H130.781V40.1129ZM131.162 35.8773H132.632V39.7318H131.162V35.8773Z" fill="white" stroke="white" stroke-width="0.4"/>
<path d="M77.3186 40.1129V35.4962H75.0864V40.1129H77.3186ZM75.4675 35.8773H76.9375V39.7318H75.4675V35.8773Z" fill="white" stroke="white" stroke-width="0.4"/>
<path d="M81.2819 35.4962H79.0498V40.1129H81.2819V35.4962ZM80.9008 39.7318H79.4309V35.8773H80.9008V39.7318Z" fill="white" stroke="white" stroke-width="0.4"/>
<path d="M84.9621 35.4962H82.73V40.1129H84.9621V35.4962ZM84.581 39.7318H83.1111V35.8773H84.581V39.7318Z" fill="white" stroke="white" stroke-width="0.4"/>
<path d="M168.182 20.1871V27.9179H171.917V20.1871H168.182ZM171.536 27.5368H168.552V20.5682H171.536V27.5368Z" fill="white" stroke="white" stroke-width="0.4"/>
<path d="M69.5879 20.4267V28.1574H73.3226V20.4267H69.5879ZM72.9415 27.7654H69.9581V20.7969H72.9415V27.7654Z" fill="white" stroke="white" stroke-width="0.4"/>
<path d="M62.8696 20.4267V28.1574H66.6043V20.4267H62.8696ZM66.2233 27.7654H63.2398V20.7969H66.2233V27.7654Z" fill="white" stroke="white" stroke-width="0.4"/>
<path d="M56.1514 20.4267V28.1574H59.8861V20.4267H56.1514ZM59.505 27.7654H56.5216V20.7969H59.505V27.7654Z" fill="white" stroke="white" stroke-width="0.4"/>
<path d="M49.4336 20.4267V28.1574H53.1792V20.4267H49.4336ZM52.7872 27.7654H49.8038V20.7969H52.7872V27.7654Z" fill="white" stroke="white" stroke-width="0.4"/>
<path d="M42.7153 20.4267V28.1574H46.4609V20.4267H42.7153ZM46.0799 27.7654H43.0964V20.7969H46.0799V27.7654Z" fill="white" stroke="white" stroke-width="0.4"/>
<path d="M35.9971 20.4267V28.1574H39.7318V20.4267H35.9971ZM39.3616 27.7654H36.3782V20.7969H39.3616V27.7654Z" fill="white" stroke="white" stroke-width="0.4"/>
<path d="M29.2788 20.4267V28.1574H33.0135V20.4267H29.2788ZM32.6433 27.7654H29.6599V20.7969H32.6433V27.7654Z" fill="white" stroke="white" stroke-width="0.4"/>
<path d="M22.5605 20.4267V28.1574H26.2953V20.4267H22.5605ZM25.9251 27.7654H22.9416V20.7969H25.9251V27.7654Z" fill="white" stroke="white" stroke-width="0.4"/>
<path d="M121.471 34.8865H116.517V42.6172H121.471V34.8865ZM121.09 42.2361H116.898V35.2675H121.09V42.2361Z" fill="white" stroke="white" stroke-width="0.4"/>
<path d="M109.037 34.8865V42.6172H113.991V34.8865H109.037ZM113.61 42.2361H109.418V35.2675H113.61V42.2361Z" fill="white" stroke="white" stroke-width="0.4"/>
<path d="M106.521 34.8865H101.567V42.6172H106.521V34.8865ZM106.14 42.2361H101.948V35.2675H106.14V42.2361Z" fill="white" stroke="white" stroke-width="0.4"/>
<path d="M94.0869 34.8865V42.6172H99.0411V34.8865H94.0869ZM98.66 42.2361H94.468V35.2675H98.66V42.2361Z" fill="white" stroke="white" stroke-width="0.4"/>
<path d="M91.5714 34.8865H86.6172V42.6172H91.5714V34.8865ZM91.1903 42.2361H86.9983V35.2675H91.1903V42.2361Z" fill="white" stroke="white" stroke-width="0.4"/>
<path d="M123.986 34.8865V42.6172H128.941V34.8865H123.986ZM128.57 42.2361H124.378V35.2675H128.57V42.2361Z" fill="white" stroke="white" stroke-width="0.4"/>
<path d="M128.93 23.6496H123.976V28.691H128.93V23.6496ZM128.549 28.3099H124.357V24.0307H128.549V28.3099Z" fill="white" stroke="white" stroke-width="0.4"/>
<path d="M167.877 47.3646H186.246V44.9038H167.877V47.3646ZM168.259 45.274H185.865V46.9726H168.259V45.274Z" fill="white" stroke="white" stroke-width="0.4"/>
<path d="M133.47 10.8775H133.089V14.928H133.47V10.8775Z" fill="white" stroke="white" stroke-width="0.4"/>
<path d="M131.586 12.2603H131.205V16.3108H131.586V12.2603Z" fill="white" stroke="white" stroke-width="0.4"/>
<path d="M129.703 13.3819H129.322V17.4323H129.703V13.3819Z" fill="white" stroke="white" stroke-width="0.4"/>
<path d="M133.47 17.8788H133.089V21.9292H133.47V17.8788Z" fill="white" stroke="white" stroke-width="0.4"/>
<path d="M131.586 19.2616H131.205V23.3121H131.586V19.2616Z" fill="white" stroke="white" stroke-width="0.4"/>
<path d="M129.703 20.3831H129.322V24.4336H129.703V20.3831Z" fill="white" stroke="white" stroke-width="0.4"/>
<path d="M127.819 14.5905H127.438V18.641H127.819V14.5905Z" fill="white" stroke="white" stroke-width="0.4"/>
<path d="M125.935 15.7991H125.554V19.8496H125.935V15.7991Z" fill="white" stroke="white" stroke-width="0.4"/>
<path d="M134.091 7.42589L133.862 7.1319L124.052 14.8409L124.28 15.1349L134.091 7.42589Z" fill="white" stroke="white" stroke-width="0.4"/>
<path d="M80.7159 16.3544H15.0044V16.7355H80.7159V16.3544Z" fill="white" stroke="white" stroke-width="0.4"/>
<path d="M80.7159 18.151H15.0044V18.5321H80.7159V18.151Z" fill="white" stroke="white" stroke-width="0.4"/>
<path d="M162.15 14.8736H139.567V15.2547H162.15V14.8736Z" fill="white" stroke="white" stroke-width="0.4"/>
<path d="M162.15 16.0604H139.567V16.4415H162.15V16.0604Z" fill="white" stroke="white" stroke-width="0.4"/>
<path d="M162.15 22.7894H139.567V23.1705H162.15V22.7894Z" fill="white" stroke="white" stroke-width="0.4"/>
<path d="M162.15 23.9872H139.567V24.3683H162.15V23.9872Z" fill="white" stroke="white" stroke-width="0.4"/>
<path d="M186.888 17.0839H165.961V17.465H186.888V17.0839Z" fill="white" stroke="white" stroke-width="0.4"/>
<path d="M186.888 18.2816H165.961V18.6627H186.888V18.2816Z" fill="white" stroke="white" stroke-width="0.4"/>
<path d="M80.7159 29.856H15.0044V30.2371H80.7159V29.856Z" fill="white" stroke="white" stroke-width="0.4"/>
<path d="M80.7159 33.0463H15.0044V33.4274H80.7159V33.0463Z" fill="white" stroke="white" stroke-width="0.4"/>
<path d="M134.777 29.856H83.6011V30.2371H134.777V29.856Z" fill="white" stroke="white" stroke-width="0.4"/>
<path d="M134.777 33.0463H83.6011V33.4274H134.777V33.0463Z" fill="white" stroke="white" stroke-width="0.4"/>
<path d="M186.736 29.856H166.723V30.2371H186.736V29.856Z" fill="white" stroke="white" stroke-width="0.4"/>
<path d="M186.736 33.0463H166.723V33.4274H186.736V33.0463Z" fill="white" stroke="white" stroke-width="0.4"/>
<path d="M16.2126 30.5964H15.8315V32.6979H16.2126V30.5964Z" fill="white" stroke="white" stroke-width="0.4"/>
<path d="M17.6936 30.5964H17.3125V32.6979H17.6936V30.5964Z" fill="white" stroke="white" stroke-width="0.4"/>
<path d="M19.1746 30.5964H18.7935V32.6979H19.1746V30.5964Z" fill="white" stroke="white" stroke-width="0.4"/>
<path d="M20.6443 30.5964H20.2632V32.6979H20.6443V30.5964Z" fill="white" stroke="white" stroke-width="0.4"/>
<path d="M22.1252 30.5964H21.7441V32.6979H22.1252V30.5964Z" fill="white" stroke="white" stroke-width="0.4"/>
<path d="M23.6062 30.5964H23.2251V32.6979H23.6062V30.5964Z" fill="white" stroke="white" stroke-width="0.4"/>
<path d="M25.0871 30.5964H24.7061V32.6979H25.0871V30.5964Z" fill="white" stroke="white" stroke-width="0.4"/>
<path d="M26.5676 30.5964H26.1865V32.6979H26.5676V30.5964Z" fill="white" stroke="white" stroke-width="0.4"/>
<path d="M28.0486 30.5964H27.6675V32.6979H28.0486V30.5964Z" fill="white" stroke="white" stroke-width="0.4"/>
<path d="M29.5295 30.5964H29.1484V32.6979H29.5295V30.5964Z" fill="white" stroke="white" stroke-width="0.4"/>
<path d="M31.01 30.5964H30.6289V32.6979H31.01V30.5964Z" fill="white" stroke="white" stroke-width="0.4"/>
<path d="M32.491 30.5964H32.1099V32.6979H32.491V30.5964Z" fill="white" stroke="white" stroke-width="0.4"/>
<path d="M33.9612 30.5964H33.5801V32.6979H33.9612V30.5964Z" fill="white" stroke="white" stroke-width="0.4"/>
<path d="M35.4416 30.5964H35.0605V32.6979H35.4416V30.5964Z" fill="white" stroke="white" stroke-width="0.4"/>
<path d="M36.9226 30.5964H36.5415V32.6979H36.9226V30.5964Z" fill="white" stroke="white" stroke-width="0.4"/>
<path d="M38.4036 30.5964H38.0225V32.6979H38.4036V30.5964Z" fill="white" stroke="white" stroke-width="0.4"/>
<path d="M39.884 30.5964H39.5029V32.6979H39.884V30.5964Z" fill="white" stroke="white" stroke-width="0.4"/>
<path d="M41.365 30.5964H40.9839V32.6979H41.365V30.5964Z" fill="white" stroke="white" stroke-width="0.4"/>
<path d="M42.8459 30.5964H42.4648V32.6979H42.8459V30.5964Z" fill="white" stroke="white" stroke-width="0.4"/>
<path d="M44.3269 30.5964H43.9458V32.6979H44.3269V30.5964Z" fill="white" stroke="white" stroke-width="0.4"/>
<path d="M45.7966 30.5964H45.4155V32.6979H45.7966V30.5964Z" fill="white" stroke="white" stroke-width="0.4"/>
<path d="M47.2776 30.5964H46.8965V32.6979H47.2776V30.5964Z" fill="white" stroke="white" stroke-width="0.4"/>
<path d="M48.758 30.5964H48.377V32.6979H48.758V30.5964Z" fill="white" stroke="white" stroke-width="0.4"/>
<path d="M50.239 30.5964H49.8579V32.6979H50.239V30.5964Z" fill="white" stroke="white" stroke-width="0.4"/>
<path d="M51.72 30.5964H51.3389V32.6979H51.72V30.5964Z" fill="white" stroke="white" stroke-width="0.4"/>
<path d="M53.2009 30.5964H52.8198V32.6979H53.2009V30.5964Z" fill="white" stroke="white" stroke-width="0.4"/>
<path d="M54.6814 30.5964H54.3003V32.6979H54.6814V30.5964Z" fill="white" stroke="white" stroke-width="0.4"/>
<path d="M56.1623 30.5964H55.7812V32.6979H56.1623V30.5964Z" fill="white" stroke="white" stroke-width="0.4"/>
<path d="M57.6326 30.5964H57.2515V32.6979H57.6326V30.5964Z" fill="white" stroke="white" stroke-width="0.4"/>
<path d="M59.113 30.5964H58.7319V32.6979H59.113V30.5964Z" fill="white" stroke="white" stroke-width="0.4"/>
<path d="M60.594 30.5964H60.2129V32.6979H60.594V30.5964Z" fill="white" stroke="white" stroke-width="0.4"/>
<path d="M62.0749 30.5964H61.6938V32.6979H62.0749V30.5964Z" fill="white" stroke="white" stroke-width="0.4"/>
<path d="M63.5554 30.5964H63.1743V32.6979H63.5554V30.5964Z" fill="white" stroke="white" stroke-width="0.4"/>
<path d="M65.0364 30.5964H64.6553V32.6979H65.0364V30.5964Z" fill="white" stroke="white" stroke-width="0.4"/>
<path d="M66.5173 30.5964H66.1362V32.6979H66.5173V30.5964Z" fill="white" stroke="white" stroke-width="0.4"/>
<path d="M67.9983 30.5964H67.6172V32.6979H67.9983V30.5964Z" fill="white" stroke="white" stroke-width="0.4"/>
<path d="M69.4788 30.5964H69.0977V32.6979H69.4788V30.5964Z" fill="white" stroke="white" stroke-width="0.4"/>
<path d="M70.949 30.5964H70.5679V32.6979H70.949V30.5964Z" fill="white" stroke="white" stroke-width="0.4"/>
<path d="M72.4294 30.5964H72.0483V32.6979H72.4294V30.5964Z" fill="white" stroke="white" stroke-width="0.4"/>
<path d="M73.9104 30.5964H73.5293V32.6979H73.9104V30.5964Z" fill="white" stroke="white" stroke-width="0.4"/>
<path d="M75.3913 30.5964H75.0103V32.6979H75.3913V30.5964Z" fill="white" stroke="white" stroke-width="0.4"/>
<path d="M76.8723 30.5964H76.4912V32.6979H76.8723V30.5964Z" fill="white" stroke="white" stroke-width="0.4"/>
<path d="M78.3528 30.5964H77.9717V32.6979H78.3528V30.5964Z" fill="white" stroke="white" stroke-width="0.4"/>
<path d="M79.8337 30.5964H79.4526V32.6979H79.8337V30.5964Z" fill="white" stroke="white" stroke-width="0.4"/>
<path d="M84.8205 30.5964H84.4395V32.6979H84.8205V30.5964Z" fill="white" stroke="white" stroke-width="0.4"/>
<path d="M86.3015 30.5964H85.9204V32.6979H86.3015V30.5964Z" fill="white" stroke="white" stroke-width="0.4"/>
<path d="M87.7825 30.5964H87.4014V32.6979H87.7825V30.5964Z" fill="white" stroke="white" stroke-width="0.4"/>
<path d="M89.2629 30.5964H88.8818V32.6979H89.2629V30.5964Z" fill="white" stroke="white" stroke-width="0.4"/>
<path d="M90.7439 30.5964H90.3628V32.6979H90.7439V30.5964Z" fill="white" stroke="white" stroke-width="0.4"/>
<path d="M92.2248 30.5964H91.8438V32.6979H92.2248V30.5964Z" fill="white" stroke="white" stroke-width="0.4"/>
<path d="M93.7058 30.5964H93.3247V32.6979H93.7058V30.5964Z" fill="white" stroke="white" stroke-width="0.4"/>
<path d="M95.1755 30.5964H94.7944V32.6979H95.1755V30.5964Z" fill="white" stroke="white" stroke-width="0.4"/>
<path d="M96.6565 30.5964H96.2754V32.6979H96.6565V30.5964Z" fill="white" stroke="white" stroke-width="0.4"/>
<path d="M98.1374 30.5964H97.7563V32.6979H98.1374V30.5964Z" fill="white" stroke="white" stroke-width="0.4"/>
<path d="M99.6179 30.5964H99.2368V32.6979H99.6179V30.5964Z" fill="white" stroke="white" stroke-width="0.4"/>
<path d="M101.099 30.5964H100.718V32.6979H101.099V30.5964Z" fill="white" stroke="white" stroke-width="0.4"/>
<path d="M102.58 30.5964H102.199V32.6979H102.58V30.5964Z" fill="white" stroke="white" stroke-width="0.4"/>
<path d="M104.06 30.5964H103.679V32.6979H104.06V30.5964Z" fill="white" stroke="white" stroke-width="0.4"/>
<path d="M105.541 30.5964H105.16V32.6979H105.541V30.5964Z" fill="white" stroke="white" stroke-width="0.4"/>
<path d="M107.011 30.5964H106.63V32.6979H107.011V30.5964Z" fill="white" stroke="white" stroke-width="0.4"/>
<path d="M108.492 30.5964H108.111V32.6979H108.492V30.5964Z" fill="white" stroke="white" stroke-width="0.4"/>
<path d="M109.973 30.5964H109.592V32.6979H109.973V30.5964Z" fill="white" stroke="white" stroke-width="0.4"/>
<path d="M111.454 30.5964H111.073V32.6979H111.454V30.5964Z" fill="white" stroke="white" stroke-width="0.4"/>
<path d="M112.935 30.5964H112.554V32.6979H112.935V30.5964Z" fill="white" stroke="white" stroke-width="0.4"/>
<path d="M114.415 30.5964H114.034V32.6979H114.415V30.5964Z" fill="white" stroke="white" stroke-width="0.4"/>
<path d="M115.896 30.5964H115.515V32.6979H115.896V30.5964Z" fill="white" stroke="white" stroke-width="0.4"/>
<path d="M117.377 30.5964H116.996V32.6979H117.377V30.5964Z" fill="white" stroke="white" stroke-width="0.4"/>
<path d="M118.858 30.5964H118.477V32.6979H118.858V30.5964Z" fill="white" stroke="white" stroke-width="0.4"/>
<path d="M120.328 30.5964H119.947V32.6979H120.328V30.5964Z" fill="white" stroke="white" stroke-width="0.4"/>
<path d="M121.808 30.5964H121.427V32.6979H121.808V30.5964Z" fill="white" stroke="white" stroke-width="0.4"/>
<path d="M123.289 30.5964H122.908V32.6979H123.289V30.5964Z" fill="white" stroke="white" stroke-width="0.4"/>
<path d="M124.77 30.5964H124.389V32.6979H124.77V30.5964Z" fill="white" stroke="white" stroke-width="0.4"/>
<path d="M126.251 30.5964H125.87V32.6979H126.251V30.5964Z" fill="white" stroke="white" stroke-width="0.4"/>
<path d="M127.732 30.5964H127.351V32.6979H127.732V30.5964Z" fill="white" stroke="white" stroke-width="0.4"/>
<path d="M129.213 30.5964H128.832V32.6979H129.213V30.5964Z" fill="white" stroke="white" stroke-width="0.4"/>
<path d="M130.694 30.5964H130.312V32.6979H130.694V30.5964Z" fill="white" stroke="white" stroke-width="0.4"/>
<path d="M132.163 30.5964H131.782V32.6979H132.163V30.5964Z" fill="white" stroke="white" stroke-width="0.4"/>
<path d="M133.644 30.5964H133.263V32.6979H133.644V30.5964Z" fill="white" stroke="white" stroke-width="0.4"/>
<path d="M168.215 30.5964H167.834V32.6979H168.215V30.5964Z" fill="white" stroke="white" stroke-width="0.4"/>
<path d="M169.696 30.5964H169.315V32.6979H169.696V30.5964Z" fill="white" stroke="white" stroke-width="0.4"/>
<path d="M171.176 30.5964H170.795V32.6979H171.176V30.5964Z" fill="white" stroke="white" stroke-width="0.4"/>
<path d="M172.657 30.5964H172.276V32.6979H172.657V30.5964Z" fill="white" stroke="white" stroke-width="0.4"/>
<path d="M174.138 30.5964H173.757V32.6979H174.138V30.5964Z" fill="white" stroke="white" stroke-width="0.4"/>
<path d="M175.608 30.5964H175.227V32.6979H175.608V30.5964Z" fill="white" stroke="white" stroke-width="0.4"/>
<path d="M177.089 30.5964H176.708V32.6979H177.089V30.5964Z" fill="white" stroke="white" stroke-width="0.4"/>
<path d="M178.57 30.5964H178.189V32.6979H178.57V30.5964Z" fill="white" stroke="white" stroke-width="0.4"/>
<path d="M180.051 30.5964H179.669V32.6979H180.051V30.5964Z" fill="white" stroke="white" stroke-width="0.4"/>
<path d="M181.531 30.5964H181.15V32.6979H181.531V30.5964Z" fill="white" stroke="white" stroke-width="0.4"/>
<path d="M183.012 30.5964H182.631V32.6979H183.012V30.5964Z" fill="white" stroke="white" stroke-width="0.4"/>
<path d="M184.493 30.5964H184.112V32.6979H184.493V30.5964Z" fill="white" stroke="white" stroke-width="0.4"/>
<path d="M185.974 30.5964H185.593V32.6979H185.974V30.5964Z" fill="white" stroke="white" stroke-width="0.4"/>
<path d="M11.0952 60.4307H26.6983V64.5574H15.5377V69.1632H20.8948C23.2358 69.1632 25.0106 69.7294 26.241 70.8618C27.4605 71.9942 28.0811 73.6274 28.0811 75.7506C28.0811 77.9937 27.3952 79.7249 26.0341 80.9662C24.6731 82.2075 22.7458 82.8172 20.2633 82.8172H11.0952V60.4307ZM20.0128 78.9845C21.1561 78.9845 22.0272 78.7232 22.6369 78.2005C23.2467 77.6779 23.5516 76.9157 23.5516 75.914C23.5516 73.9541 22.3756 72.9741 20.0128 72.9741H15.5377V78.9845H20.0128Z" fill="white"/>
<path d="M51.8613 60.4307L43.6297 78.157C42.8349 79.8665 41.8876 81.1513 40.7769 82.0224C39.6663 82.8934 38.4577 83.329 37.1511 83.329C36.1385 83.329 35.0932 83.0677 34.0044 82.5559L35.0823 78.6252C35.8554 78.8974 36.4978 79.0389 37.0096 79.0389C37.5649 79.0389 38.0548 78.8865 38.5013 78.5707C38.9477 78.2659 39.3506 77.7759 39.7208 77.1117L39.8841 76.8504L32.2622 60.4089H37.0422L42.1816 72.4406L47.4733 60.4307H51.8613Z" fill="white"/>
<path d="M72.7563 64.6445H66.5717V82.8172H62.151V64.6445H55.999V60.4307H72.7563V64.6445Z" fill="white"/>
<path d="M96.7759 60.4307L88.5443 78.157C87.7494 79.8665 86.8021 81.1513 85.6915 82.0224C84.5809 82.8934 83.3723 83.329 82.0657 83.329C81.053 83.329 80.0078 83.0677 78.9189 82.5559L79.9969 78.6252C80.7699 78.8974 81.4123 79.0389 81.9241 79.0389C82.4794 79.0389 82.9694 78.8865 83.4158 78.5707C83.8622 78.2659 84.2651 77.7759 84.6353 77.1117L84.7986 76.8504L77.1768 60.4089H81.9568L87.0961 72.4406L92.3988 60.4089H96.7759V60.4307Z" fill="white"/>
<path d="M114.328 61.4215C115.591 62.0857 116.56 63.0221 117.236 64.2307C117.922 65.4502 118.259 66.8875 118.259 68.5534C118.259 70.1976 117.922 71.6239 117.236 72.8543C116.55 74.0847 115.581 75.0211 114.328 75.6744C113.065 76.3277 111.584 76.6544 109.875 76.6544H105.988V82.8281H101.513V60.4307H109.875C111.584 60.4307 113.065 60.7573 114.328 61.4215ZM112.684 71.4171C113.381 70.742 113.729 69.7947 113.729 68.5534C113.729 67.2904 113.381 66.3322 112.684 65.6571C111.987 64.982 110.964 64.6445 109.625 64.6445H105.977V72.4188H109.625C110.964 72.4188 111.987 72.0921 112.684 71.4171Z" fill="white"/>
<path d="M139.862 60.4307V82.8172H135.441V64.6445H128.81L128.668 69.3156C128.581 72.495 128.353 75.0647 128.004 77.0355C127.656 79.0063 127.068 80.5198 126.251 81.5759C125.435 82.6321 124.291 83.1548 122.81 83.1548C122.201 83.1548 121.471 83.035 120.6 82.8063L120.872 78.4292C121.112 78.5163 121.373 78.5599 121.667 78.5599C122.734 78.5599 123.475 77.8303 123.899 76.3713C124.324 74.9122 124.585 72.6257 124.694 69.5116L124.966 60.4307H139.862Z" fill="white"/>
<path d="M147.19 60.4307H151.632V75.0211L160.855 60.4307H165.047V82.8172H160.626V68.2594L151.403 82.8172H147.179V60.4307H147.19Z" fill="white"/>
<path d="M189.589 60.4307V82.8172H185.114V73.6383H176.338V82.8172H171.863V60.4307H176.338V69.2612H185.114V60.4307H189.589Z" fill="white"/>
<path d="M12.5978 97.5057H11.0952V96.9286H12.5978C13.8391 96.9286 14.3508 96.4168 14.3508 95.6655C14.3508 94.9142 13.8391 94.5114 13.0442 94.5114H12.4345V93.9887L13.8282 92.7474H11.1061V92.1704H14.6122V92.7257L13.2076 93.9778H13.2729C14.2637 93.9778 14.9606 94.6203 14.9606 95.6655C14.9715 96.7108 14.2637 97.5057 12.5978 97.5057Z" fill="white" stroke="white" stroke-width="0.3"/>
<path d="M21.57 97.5057H20.9167L20.4921 96.1991H17.6393L17.2147 97.5057H16.5723L18.3362 92.1704H19.8061L21.57 97.5057ZM17.8244 95.622H20.2961L19.3597 92.7474H18.7608L17.8244 95.622Z" fill="white" stroke="white" stroke-width="0.3"/>
<path d="M23.5841 92.1595H26.132C26.9051 92.1595 27.4495 92.6712 27.4495 93.3463C27.4495 93.7818 27.2209 94.1194 26.9269 94.2936C27.4495 94.5114 27.8306 95.0885 27.8306 95.7527C27.8306 96.8197 27.0684 97.4948 25.838 97.4948H23.5732V92.1595H23.5841ZM24.1939 92.7474V94.0649H26.0667C26.5567 94.0649 26.8289 93.8036 26.8289 93.4116C26.8289 93.0197 26.5567 92.7474 26.0667 92.7474H24.1939ZM24.1939 94.642V96.9177H25.7945C26.8942 96.9177 27.21 96.3951 27.21 95.7635C27.21 95.0667 26.7527 94.642 25.7945 94.642H24.1939Z" fill="white" stroke="white" stroke-width="0.3"/>
<path d="M29.6382 94.838C29.6382 93.2701 30.7924 92.0724 32.3494 92.0724C33.9064 92.0724 35.0715 93.2592 35.0715 94.838C35.0715 96.4168 33.9064 97.5928 32.3494 97.5928C30.7815 97.5928 29.6382 96.406 29.6382 94.838ZM30.2588 94.838C30.2588 96.1011 31.1408 97.0157 32.3385 97.0157C33.5362 97.0157 34.44 96.112 34.44 94.838C34.44 93.575 33.5362 92.6495 32.3385 92.6495C31.1517 92.6495 30.2588 93.5859 30.2588 94.838Z" fill="white" stroke="white" stroke-width="0.3"/>
<path d="M41.9963 98.7796H41.3865V97.4948H36.8461V98.7796H36.2363V96.9177H36.857L38.6209 92.1595H41.1361V96.9177H41.9963V98.7796ZM37.5103 96.9177H40.5264V92.7366H39.0347L37.5103 96.9177Z" fill="white" stroke="white" stroke-width="0.3"/>
<path d="M47.2554 97.5057V92.1704H47.8651V93.8363H51.1099V92.1704H51.7196V97.5057H51.1099V94.4134H47.8651V97.5057H47.2554Z" fill="white" stroke="white" stroke-width="0.3"/>
<path d="M58.7213 97.5057H58.068L57.6433 96.1991H54.8014L54.3768 97.5057H53.7344L55.4983 92.1704H56.9682L58.7213 97.5057ZM54.9865 95.622H57.4582L56.5218 92.7474H55.9229L54.9865 95.622Z" fill="white" stroke="white" stroke-width="0.3"/>
<path d="M60.7461 97.5057V92.1704H65.1559V97.5057H64.5461V92.7474H61.3558V97.5057H60.7461Z" fill="white" stroke="white" stroke-width="0.3"/>
<path d="M67.7368 97.5057V92.1704H68.3466V94.7618L71.624 92.1704H72.2337V97.5057H71.624V92.9217L68.3466 95.5131V97.5057H67.7368Z" fill="white" stroke="white" stroke-width="0.3"/>
<path d="M78.4506 92.1595V92.7366H76.6323V97.4948H76.0225V92.7366H74.1279V92.1595H78.4506Z" fill="white" stroke="white" stroke-width="0.3"/>
<path d="M80.3452 97.5057V92.1704H80.955V94.2936L84.2433 92.0724V92.7801L82.6644 93.8363L84.5373 97.5275L83.8404 97.5166L82.1636 94.1738L80.955 94.9796V97.4948H80.3452V97.5057Z" fill="white" stroke="white" stroke-width="0.3"/>
<path d="M85.9966 94.838C85.9966 93.2701 87.1507 92.0724 88.7078 92.0724C90.2648 92.0724 91.4299 93.2592 91.4299 94.838C91.4299 96.4168 90.2648 97.5928 88.7078 97.5928C87.1399 97.5928 85.9966 96.406 85.9966 94.838ZM86.6172 94.838C86.6172 96.1011 87.4992 97.0157 88.6969 97.0157C89.8946 97.0157 90.7984 96.112 90.7984 94.838C90.7984 93.575 89.8946 92.6495 88.6969 92.6495C87.4992 92.6495 86.6172 93.5859 86.6172 94.838Z" fill="white" stroke="white" stroke-width="0.3"/>
<path d="M93.5856 92.1595H96.1335C96.9066 92.1595 97.451 92.6712 97.451 93.3463C97.451 93.7818 97.2223 94.1194 96.9283 94.2936C97.451 94.5114 97.8321 95.0885 97.8321 95.7527C97.8321 96.8197 97.0699 97.4948 95.8395 97.4948H93.5747V92.1595H93.5856ZM94.1953 92.7474V94.0649H96.0681C96.5581 94.0649 96.8303 93.8036 96.8303 93.4116C96.8303 93.0197 96.5581 92.7474 96.0681 92.7474H94.1953ZM94.1953 94.642V96.9177H95.7959C96.8957 96.9177 97.2114 96.3951 97.2114 95.7635C97.2114 95.0667 96.7541 94.642 95.7959 94.642H94.1953Z" fill="white" stroke="white" stroke-width="0.3"/>
<path d="M102.808 94.838C102.808 93.2701 103.962 92.0724 105.519 92.0724C107.076 92.0724 108.241 93.2592 108.241 94.838C108.241 96.4168 107.076 97.5928 105.519 97.5928C103.951 97.5928 102.808 96.406 102.808 94.838ZM103.429 94.838C103.429 96.1011 104.311 97.0157 105.508 97.0157C106.706 97.0157 107.61 96.112 107.61 94.838C107.61 93.575 106.706 92.6495 105.508 92.6495C104.311 92.6495 103.429 93.5859 103.429 94.838Z" fill="white" stroke="white" stroke-width="0.3"/>
<path d="M110.605 94.838C110.605 96.1011 111.486 97.0157 112.673 97.0048C113.588 97.0048 114.23 96.4822 114.557 95.7853L115.101 96.0249C114.72 96.9504 113.827 97.5928 112.673 97.5928C111.127 97.5928 109.984 96.406 109.984 94.838C109.984 93.2701 111.138 92.0724 112.673 92.0724C113.827 92.0724 114.709 92.7039 115.091 93.6076L114.546 93.869C114.187 93.1721 113.599 92.6495 112.673 92.6495C111.486 92.6495 110.605 93.5859 110.605 94.838Z" fill="white" stroke="white" stroke-width="0.3"/>
<path d="M117.214 97.5057V92.1704H117.824V93.8363H121.068V92.1704H121.678V97.5057H121.068V94.4134H117.824V97.5057H117.214Z" fill="white" stroke="white" stroke-width="0.3"/>
<path d="M123.845 94.838C123.845 93.2701 124.999 92.0724 126.556 92.0724C128.113 92.0724 129.278 93.2592 129.278 94.838C129.278 96.4168 128.113 97.5928 126.556 97.5928C124.988 97.5928 123.845 96.406 123.845 94.838ZM124.476 94.838C124.476 96.1011 125.358 97.0157 126.556 97.0157C127.754 97.0157 128.657 96.112 128.657 94.838C128.657 93.575 127.754 92.6495 126.556 92.6495C125.358 92.6495 124.476 93.5859 124.476 94.838Z" fill="white" stroke="white" stroke-width="0.3"/>
<path d="M131.444 92.1595H133.992C134.765 92.1595 135.31 92.6712 135.31 93.3463C135.31 93.7818 135.081 94.1194 134.787 94.2936C135.31 94.5114 135.691 95.0885 135.691 95.7527C135.691 96.8197 134.929 97.4948 133.698 97.4948H131.434V92.1595H131.444ZM132.054 92.7474V94.0649H133.927C134.417 94.0649 134.689 93.8036 134.689 93.4116C134.689 93.0197 134.417 92.7474 133.927 92.7474H132.054ZM132.054 94.642V96.9177H133.655C134.755 96.9177 135.07 96.3951 135.07 95.7635C135.07 95.0667 134.613 94.642 133.655 94.642H132.054Z" fill="white" stroke="white" stroke-width="0.3"/>
<path d="M142.3 97.5057H141.647L141.222 96.1991H138.381L137.956 97.5057H137.313L139.077 92.1704H140.547L142.3 97.5057ZM138.555 95.622H141.026L140.09 92.7474H139.491L138.555 95.622Z" fill="white" stroke="white" stroke-width="0.3"/>
<path d="M144.315 97.5057V92.1704H144.925V93.8363H148.169V92.1704H148.779V97.5057H148.169V94.4134H144.925V97.5057H144.315Z" fill="white" stroke="white" stroke-width="0.3"/>
<path d="M154.572 92.1595H157.12C157.893 92.1595 158.437 92.6712 158.437 93.3463C158.437 93.7818 158.209 94.1194 157.915 94.2936C158.437 94.5114 158.818 95.0885 158.818 95.7527C158.818 96.8197 158.056 97.4948 156.826 97.4948H154.561V92.1595H154.572ZM155.182 92.7474V94.0649H157.054C157.544 94.0649 157.817 93.8036 157.817 93.4116C157.817 93.0197 157.544 92.7474 157.054 92.7474H155.182ZM155.182 94.642V96.9177H156.782C157.882 96.9177 158.198 96.3951 158.198 95.7635C158.198 95.0667 157.74 94.642 156.782 94.642H155.182Z" fill="white" stroke="white" stroke-width="0.3"/>
<path d="M165.188 96.9177V92.8999L163.674 93.477V92.8781L165.798 92.0506V96.9068H167.061V97.4839H163.674V96.9068H165.188V96.9177Z" fill="white" stroke="white" stroke-width="0.3"/>
<path d="M168.389 95.7091C168.389 94.9578 168.846 94.4025 169.326 94.1521C169.01 93.9561 168.759 93.6621 168.759 93.2265C168.759 92.5297 169.402 92.0724 170.512 92.0724C171.623 92.0724 172.265 92.5297 172.265 93.2265C172.265 93.6076 172.004 93.9561 171.677 94.1521C172.222 94.4352 172.625 94.9578 172.625 95.6982C172.625 96.7762 171.819 97.5819 170.502 97.5819C169.238 97.5928 168.389 96.7871 168.389 95.7091ZM171.982 95.72C171.982 94.9251 171.383 94.446 170.512 94.446C169.587 94.446 169.042 94.9469 169.042 95.72C169.042 96.4168 169.5 97.0048 170.512 97.0048C171.558 97.0048 171.982 96.406 171.982 95.72ZM171.634 93.2483C171.634 92.8563 171.253 92.6168 170.512 92.6168C169.772 92.6168 169.391 92.8563 169.391 93.2483C169.391 93.7056 169.794 93.9016 170.512 93.9016C171.231 93.9016 171.634 93.6839 171.634 93.2483Z" fill="white" stroke="white" stroke-width="0.3"/>
<path d="M174.073 93.9887C174.073 92.9326 174.955 92.0724 176.033 92.0724C177.111 92.0724 177.993 92.9543 177.993 94.0105C177.993 94.446 177.786 94.9469 177.47 95.3716L175.837 97.5166H175.085L176.501 95.7418C176.338 95.7962 176.185 95.818 176.022 95.818C174.966 95.7962 174.073 94.9905 174.073 93.9887ZM174.683 93.9887C174.683 94.6856 175.292 95.2627 176.033 95.2627C176.784 95.2627 177.394 94.6965 177.394 93.9996C177.394 93.2592 176.784 92.6386 176.033 92.6386C175.292 92.6495 174.683 93.2592 174.683 93.9887Z" fill="white" stroke="white" stroke-width="0.3"/>
<path d="M179.953 97.5057L181.238 94.8489H179.702V94.2718H181.521L182.261 92.7474H179.136V92.1704H183.187L180.584 97.5057H179.953Z" fill="white" stroke="white" stroke-width="0.3"/>
<path d="M188.457 92.1595V92.7366H185.506V97.4948H184.896V92.1595H188.457Z" fill="white" stroke="white" stroke-width="0.3"/>
<path d="M189.393 96.5802C189.687 96.5802 189.905 96.7979 189.905 97.081C189.905 97.3532 189.687 97.571 189.393 97.571C189.121 97.571 188.903 97.3532 188.903 97.081C188.903 96.787 189.121 96.5802 189.393 96.5802Z" fill="white" stroke="white" stroke-width="0.3"/>
</svg>
