<svg width="111" height="218" viewBox="0 0 111 218" fill="none" xmlns="http://www.w3.org/2000/svg">
<path d="M9.80109 213.36V187.73L0.121094 191.43V187.64L13.6911 182.39V213.37H21.7611V217.07H0.171094V213.37H9.80109V213.36Z" fill="white"/>
<path d="M25.4111 205.63C25.4111 200.86 28.3311 197.26 31.3911 195.71C29.3511 194.45 27.7411 192.6 27.7411 189.82C27.7411 185.35 31.8711 182.43 38.9311 182.43C45.9911 182.43 50.1211 185.35 50.1211 189.82C50.1211 192.25 48.4211 194.49 46.3711 195.75C49.8711 197.55 52.4511 200.86 52.4511 205.62C52.4511 212.48 47.3411 217.63 38.8811 217.63C30.8111 217.64 25.4111 212.48 25.4111 205.63ZM48.3211 205.67C48.3211 200.61 44.5311 197.55 38.9311 197.55C33.0011 197.55 29.5411 200.76 29.5411 205.67C29.5411 210.1 32.4611 213.89 38.9311 213.89C45.6011 213.89 48.3211 210.1 48.3211 205.67ZM46.0911 189.91C46.0911 187.38 43.6611 185.87 38.9411 185.87C34.2211 185.87 31.7911 187.38 31.7911 189.91C31.7911 192.83 34.3711 194.04 38.9411 194.04C43.5111 194.04 46.0911 192.74 46.0911 189.91Z" fill="white"/>
<path d="M56.8311 194.63C56.8311 187.92 62.4711 182.37 69.3311 182.37C76.2411 182.37 81.8311 187.96 81.8311 194.73C81.8311 197.5 80.5211 200.71 78.4711 203.39L68.0611 217.06H63.2411L72.2411 205.73C71.2211 206.07 70.2011 206.22 69.1811 206.22C62.5211 206.21 56.8311 201.05 56.8311 194.63ZM60.7211 194.63C60.7211 199.1 64.6111 202.75 69.3311 202.75C74.1011 202.75 77.9911 199.15 77.9911 194.72C77.9911 190 74.1011 186.06 69.3311 186.06C64.5611 186.07 60.7211 189.96 60.7211 194.63Z" fill="white"/>
<path d="M89.5112 217.06L97.7312 200.13H87.9012V196.43H99.4912L104.211 186.7H84.2612V183H110.091L93.5012 217.05H89.5112V217.06Z" fill="white"/>
<path fill-rule="evenodd" clip-rule="evenodd" d="M45.801 164.88C45.531 164.76 45.221 164.88 45.101 165.15C45.071 165.21 42.301 171.41 40.711 173.37C39.821 174.47 38.751 174.71 38.121 174.47C37.591 174.26 37.331 173.72 37.371 172.95C37.491 171.03 39.3009 167.7 41.591 163.48C42.1409 162.47 42.7109 161.42 43.291 160.33C45.151 156.83 48.041 151.86 50.671 147.45C56.831 146.91 63.8609 146.94 70.3309 148.49C70.6209 148.56 70.901 148.38 70.971 148.1C71.041 147.81 70.8609 147.53 70.5809 147.46C64.2509 145.95 57.4109 145.86 51.341 146.34C54.241 141.48 56.661 137.54 56.711 137.47C56.861 137.22 56.791 136.89 56.541 136.74C56.291 136.59 55.961 136.66 55.811 136.91C55.761 136.99 53.1209 141.28 50.041 146.45C47.2309 146.71 44.621 147.08 42.331 147.48C34.221 148.88 28.331 150.86 28.271 150.88C27.991 150.97 27.841 151.28 27.941 151.55C28.021 151.77 28.221 151.91 28.441 151.91C28.501 151.91 28.551 151.9 28.611 151.88C28.671 151.86 34.481 149.91 42.511 148.52C44.561 148.16 46.881 147.83 49.361 147.58C47.181 151.25 44.861 155.23 43.131 158.4L43.121 158.41C43.101 158.43 40.801 160.62 40.221 161.12C39.6609 161.59 36.701 163.61 36.091 163.97C35.471 164.35 33.751 165.08 33.051 165.1C32.751 165.11 32.391 164.99 32.301 164.72C32.241 164.56 32.081 163.9 32.491 162.28C32.881 160.72 34.181 158.45 34.191 158.42C34.321 158.19 34.261 157.89 34.041 157.73C33.8209 157.57 33.521 157.6 33.341 157.79C32.6409 158.54 31.511 159.72 31.301 159.91C30.921 160.25 28.041 162.57 27.501 162.8C27.221 162.92 27.051 162.92 27.011 162.82C26.941 162.68 26.921 162.22 27.271 161.36C27.521 160.75 28.521 159.28 28.881 158.76C28.941 158.67 28.981 158.56 28.981 158.46C29.051 158.37 29.101 158.26 29.101 158.14C29.111 157.85 28.871 157.6 28.581 157.59C28.491 157.59 26.271 157.53 25.021 157.62C24.601 157.65 24.111 157.69 23.531 157.74C23.541 157.64 23.561 157.54 23.561 157.43C23.681 156.07 23.061 155.22 22.691 154.72C22.651 154.66 22.611 154.61 22.571 154.56C22.121 153.91 20.541 153.05 18.721 152.75C19.001 152.58 19.291 152.4 19.581 152.22C21.191 151.21 22.691 150.03 24.431 148.4C26.281 146.67 27.461 145 27.931 143.43C28.491 141.56 28.311 139.79 27.891 138.87C27.441 137.9 26.381 137.08 24.901 136.53C23.501 136.02 21.051 135.9 19.341 136.05C17.731 136.19 15.921 136.57 13.651 137.25C11.291 137.95 8.40095 139.26 6.77095 140.35C4.88095 141.62 2.95095 143.39 1.86095 144.88C0.650952 146.52 -0.0290476 148.17 0.000952408 149.39C0.0509524 151.25 1.02095 151.79 1.13095 151.84L1.61095 150.89L1.63095 150.9C1.61095 150.89 1.10095 150.57 1.07095 149.36C1.05095 148.38 1.66095 146.94 2.72095 145.51C3.75095 144.12 5.57095 142.44 7.37095 141.24C8.90095 140.22 11.731 138.94 13.961 138.28C16.161 137.62 17.901 137.25 19.441 137.12C20.991 136.99 23.311 137.09 24.551 137.54C25.751 137.98 26.621 138.63 26.941 139.32C27.181 139.84 27.481 141.3 26.931 143.13C26.511 144.52 25.431 146.03 23.721 147.63C22.031 149.21 20.581 150.35 19.031 151.33C18.301 151.79 17.601 152.2 16.941 152.57C15.711 152.5 14.531 152.56 13.421 152.62C11.971 152.7 11.021 152.76 8.35095 153.27C8.34095 153.27 8.32095 153.28 8.31095 153.28C8.67095 152.77 8.98095 152.35 9.17095 152.11C9.30095 151.94 9.49095 151.71 9.70095 151.43C10.741 150.11 12.691 147.65 13.521 146.85C14.551 145.87 15.991 144.41 16.001 144.39C16.211 144.18 16.201 143.84 15.991 143.64C15.781 143.43 15.441 143.44 15.241 143.65C15.231 143.66 13.801 145.11 12.781 146.08C11.891 146.92 9.99095 149.33 8.85095 150.77C8.63095 151.04 8.45095 151.28 8.32095 151.44C8.00095 151.84 7.41095 152.66 6.75095 153.62C5.51095 153.94 4.89095 154.23 4.32095 154.49C4.22095 154.54 4.12095 154.58 4.02095 154.63C2.97095 155.11 2.44095 155.71 2.57095 156.3C2.69095 156.85 3.03095 157.11 3.74095 157.22C3.91095 157.24 4.10095 157.26 4.33095 157.27C4.20095 157.48 4.08095 157.67 3.98095 157.85C2.88095 159.69 1.64095 162.71 1.59095 162.83C1.48095 163.1 1.61095 163.41 1.88095 163.52C1.95095 163.55 2.01095 163.56 2.08095 163.56C2.29095 163.56 2.49095 163.44 2.57095 163.23C2.58095 163.2 3.83095 160.16 4.89095 158.39C5.09095 158.05 5.34095 157.65 5.62095 157.22C6.18095 157.17 6.88095 157.08 7.78095 156.93C10.411 156.48 13.271 155.42 14.091 155.11C15.011 154.75 16.041 154.26 17.161 153.65C17.591 153.68 18.021 153.72 18.451 153.79C20.241 154.06 21.491 154.88 21.681 155.16C21.721 155.22 21.771 155.28 21.821 155.35C22.141 155.78 22.571 156.38 22.491 157.34C22.481 157.51 22.451 157.68 22.421 157.86C21.521 157.97 20.481 158.13 19.301 158.35C16.731 158.84 14.911 159.35 12.971 159.97C11.041 160.59 8.18095 162.06 6.72095 163.19C5.52095 164.12 4.48095 165.55 4.16095 166.4C3.80095 167.36 4.00095 168.39 4.63095 168.91C5.03095 169.24 5.71095 169.62 7.18095 169.62C7.63095 169.62 8.16095 169.58 8.77095 169.5C11.361 169.14 13.461 168.15 15.391 167.17C18.211 165.74 20.421 163.34 21.481 162.04C22.291 161.05 22.901 159.92 23.251 158.83C23.971 158.75 24.571 158.71 25.061 158.67C25.781 158.62 26.871 158.62 27.641 158.63C27.211 159.27 26.501 160.35 26.261 160.95C25.971 161.65 25.701 162.62 26.021 163.28C26.141 163.53 26.631 164.3 27.881 163.78C28.591 163.48 31.141 161.4 31.821 160.84C31.661 161.24 31.531 161.64 31.431 162.02C31.091 163.37 31.031 164.42 31.271 165.07C31.511 165.73 32.181 166.15 33.0009 166.15C33.021 166.15 33.041 166.15 33.051 166.15C34.091 166.13 36.041 165.21 36.611 164.87C37.181 164.53 40.221 162.48 40.881 161.92C41.021 161.8 41.2509 161.59 41.521 161.35C41.221 161.9 40.931 162.44 40.641 162.98C38.291 167.31 36.431 170.73 36.301 172.89C36.221 174.13 36.7509 175.1 37.721 175.47C38.0009 175.58 38.301 175.63 38.601 175.63C39.611 175.63 40.701 175.06 41.521 174.04C43.1909 171.97 45.931 165.84 46.051 165.58C46.191 165.31 46.071 165 45.801 164.88ZM5.02095 156.2C4.49095 156.22 4.15095 156.2 3.90095 156.16C3.79095 156.14 3.71095 156.13 3.67095 156.11C3.76095 156.01 3.97095 155.82 4.47095 155.6C4.57095 155.55 4.67095 155.51 4.78095 155.46C5.08095 155.32 5.40095 155.17 5.81095 155.02C5.53095 155.42 5.27095 155.82 5.02095 156.2ZM13.711 154.11C12.081 154.74 9.62095 155.54 7.61095 155.88C7.15095 155.96 6.74095 156.02 6.38095 156.07C6.72095 155.56 7.06095 155.05 7.40095 154.56C7.73095 154.48 8.10095 154.4 8.53095 154.32C11.131 153.82 12.051 153.76 13.461 153.68C13.921 153.65 14.401 153.63 14.881 153.61C14.471 153.81 14.081 153.97 13.711 154.11ZM20.681 161.38C19.671 162.62 17.581 164.9 14.931 166.24C13.001 167.22 11.071 168.12 8.64095 168.46C6.18095 168.8 5.53095 168.27 5.32095 168.1C5.08095 167.91 4.95095 167.38 5.17095 166.79C5.39095 166.19 6.29095 164.9 7.38095 164.05C8.73095 163 11.501 161.58 13.301 161C15.201 160.39 16.981 159.89 19.501 159.41C20.451 159.23 21.311 159.09 22.081 158.99C21.761 159.8 21.281 160.64 20.681 161.38Z" fill="white"/>
<path fill-rule="evenodd" clip-rule="evenodd" d="M81.1509 165.34C80.8809 165.23 80.5709 165.37 80.4609 165.65C80.4509 165.67 79.5309 167.97 77.9209 168.22C75.8509 168.54 74.6309 167.56 74.2009 165.25C73.9309 163.81 74.0109 162.08 74.4409 160.06C77.1409 158.23 86.8709 151.61 89.3109 149.75C91.2109 148.31 96.9709 143.39 98.7209 140.34C99.7809 138.5 99.6709 137.2 99.4009 136.43C99.0909 135.57 98.4009 134.87 97.4909 134.53C95.6809 133.84 93.3709 134.38 90.2209 136.25C86.7609 138.3 83.9909 141.26 81.5009 144.17C79.6409 146.34 76.0309 151.45 74.2309 156.86C73.9609 157.68 73.7309 158.46 73.5509 159.22C73.3709 159.33 73.1609 159.46 72.9209 159.62C72.1409 160.11 71.0709 160.79 69.9909 161.41C67.7109 162.74 66.0709 163.49 65.7609 163.52C65.4909 163.55 65.1309 163.52 64.9809 163.23C64.8609 163 64.8709 162.68 65.0309 162.28C65.1409 162 65.6409 161.37 66.0009 160.91C66.2109 160.65 66.4009 160.4 66.5509 160.19C67.1609 159.34 67.2209 158.74 67.2309 158.2C67.2309 157.97 67.1909 157.71 67.1209 157.45C67.4609 157.08 67.9009 156.57 68.0809 156.2C68.3909 155.55 68.4309 154.52 68.1509 154.05C67.7809 153.41 67.0309 153.14 66.3209 153.38C65.7309 153.58 65.1509 154.29 65.2409 155.2C65.2709 155.51 65.4309 155.93 65.6409 156.46C65.7309 156.68 65.8209 156.92 65.9109 157.16C65.4209 157.57 62.0909 160.36 61.5509 160.76C60.9909 161.17 58.7409 162.61 57.4409 163.23C56.7109 163.58 55.0509 164.21 54.3609 164.22C54.0009 164.23 53.6709 164.1 53.6009 163.92C53.5509 163.79 53.4009 163.25 53.8009 161.89C54.1909 160.56 55.4709 158.59 55.4909 158.57C55.6409 158.35 55.5909 158.05 55.3909 157.87C55.1909 157.7 54.8809 157.7 54.6909 157.88C53.9909 158.53 52.8609 159.55 52.6509 159.72C52.2609 160.02 49.4009 162.03 48.8509 162.23C48.6309 162.31 48.3709 162.36 48.3209 162.27C48.2809 162.19 48.2409 161.84 48.5909 161.11C48.8409 160.58 49.8409 159.11 50.2109 158.6C50.3809 158.36 50.3209 158.03 50.0809 157.86C49.8409 157.69 49.5109 157.75 49.3409 157.99C49.2809 158.07 47.9709 159.94 47.6309 160.66C47.3309 161.29 47.0509 162.17 47.4009 162.79C47.5509 163.07 48.0409 163.66 49.2209 163.24C49.9209 162.99 52.4209 161.22 53.1309 160.71C53.0009 161.01 52.8809 161.32 52.8009 161.6C52.4509 162.81 52.3909 163.73 52.6409 164.33C52.8809 164.92 53.5509 165.29 54.3609 165.29C54.3809 165.29 54.3909 165.29 54.4109 165.29C55.4609 165.27 57.4509 164.42 57.9309 164.19C59.2909 163.55 61.6309 162.05 62.2209 161.62C62.7009 161.26 65.1309 159.24 66.1909 158.35C66.1809 158.66 66.1109 159.03 65.7109 159.58C65.5709 159.77 65.3809 160.01 65.1909 160.26C64.7109 160.86 64.2209 161.48 64.0609 161.91C63.7909 162.62 63.7909 163.23 64.0709 163.75C64.3709 164.3 64.9309 164.6 65.6409 164.6C65.7209 164.6 65.8109 164.6 65.8909 164.59C66.8109 164.5 70.1709 162.56 70.5509 162.34C71.5409 161.77 72.5109 161.16 73.2709 160.68C72.9509 162.49 72.9209 164.09 73.1809 165.46C73.6609 168 75.0909 169.36 77.2309 169.36C77.5109 169.36 77.8009 169.34 78.1109 169.29C80.3509 168.95 81.4409 166.17 81.4909 166.05C81.5609 165.76 81.4309 165.45 81.1509 165.34ZM75.2409 157.18C76.9909 151.92 80.5109 146.95 82.3109 144.85C84.7409 142.02 87.4409 139.13 90.7609 137.16C93.2309 135.7 94.8009 135.3 95.8509 135.3C96.3909 135.3 96.7909 135.41 97.1109 135.53C97.4709 135.67 98.1209 136.02 98.4009 136.8C98.6909 137.6 98.4809 138.65 97.8009 139.83C97.0409 141.16 93.5809 145.19 88.6709 148.92C86.5109 150.56 78.3709 156.11 74.8309 158.52C74.9509 158.08 75.0909 157.64 75.2409 157.18ZM66.6809 154.37C66.7309 154.35 66.7909 154.34 66.8509 154.34C67.0009 154.34 67.1509 154.4 67.2409 154.56C67.3109 154.7 67.3209 155.32 67.1309 155.73C67.0709 155.86 66.9209 156.07 66.7409 156.28C66.7109 156.2 66.6809 156.13 66.6509 156.05C66.5109 155.69 66.3309 155.25 66.3209 155.08C66.2609 154.62 66.5909 154.4 66.6809 154.37Z" fill="white"/>
<path fill-rule="evenodd" clip-rule="evenodd" d="M110.021 157.12C109.791 156.94 109.461 156.97 109.271 157.2C108.991 157.55 107.321 158.9 105.251 160.31C102.521 162.17 101.291 162.62 101.011 162.6C100.991 162.59 100.991 162.58 100.981 162.56C100.871 162.18 101.381 161.09 101.921 160.32C101.951 160.27 101.981 160.22 102.001 160.16C102.101 159.8 102.081 159.26 101.671 158.92C101.121 158.47 100.161 158.63 98.661 159.42C97.071 160.25 95.021 161.74 93.381 163L98.891 154.96C99.051 154.73 99.001 154.43 98.791 154.25C98.581 154.07 98.271 154.09 98.071 154.28C98.031 154.32 93.971 158.37 91.731 160.27C90.071 161.68 87.871 163.3 85.501 163.3C85.111 163.3 84.741 163.14 84.491 162.87C84.161 162.51 84.021 161.94 84.081 161.22C84.231 159.48 85.701 157.9 85.721 157.87C85.921 157.66 85.911 157.32 85.701 157.12C85.491 156.92 85.151 156.93 84.951 157.14C84.881 157.22 83.211 159.01 83.031 161.12C82.921 162.41 83.341 163.17 83.711 163.58C84.161 164.07 84.821 164.36 85.511 164.36C88.221 164.36 90.631 162.6 92.431 161.07C93.171 160.44 94.101 159.58 95.031 158.71L90.481 165.36C90.331 165.58 90.361 165.88 90.561 166.06C90.661 166.15 90.791 166.2 90.921 166.2C91.041 166.2 91.161 166.16 91.261 166.07C91.311 166.03 96.181 161.92 99.161 160.36C100.451 159.68 100.891 159.72 100.991 159.74C100.991 159.76 100.991 159.78 100.991 159.8C100.661 160.3 99.691 161.86 99.971 162.85C100.071 163.19 100.291 163.44 100.621 163.58C100.931 163.71 101.651 164.02 105.701 161.29C107.681 159.95 109.661 158.42 110.111 157.86C110.291 157.64 110.251 157.3 110.021 157.12Z" fill="white"/>
<path fill-rule="evenodd" clip-rule="evenodd" d="M86.5711 155.05C86.3311 155.37 86.3511 155.78 86.6011 155.96C86.8511 156.15 87.2511 156.04 87.4811 155.72C87.7211 155.4 87.7011 154.99 87.4511 154.81C87.2011 154.63 86.8111 154.73 86.5711 155.05Z" fill="white"/>
<path d="M66.2915 98.07C66.2915 98.07 65.1015 97.48 64.7715 96.8C64.4415 96.12 64.6615 94.75 64.6615 94.75C64.6615 94.75 67.3715 91.72 68.4615 89.67C69.5515 87.62 70.5715 83.32 70.5715 83.32L70.9115 82.66L71.7715 77.16L70.2115 77.06C70.2115 77.06 69.3415 75.2 67.9315 73.25C66.5215 71.29 63.3715 69.93 63.3715 69.93L71.4915 68.22C72.0415 68.06 71.8815 67.33 71.3115 67.37C68.0215 67.59 60.8915 67.99 57.8415 67.99C54.6015 67.99 46.6615 67.7 43.2715 67.46C42.7115 67.42 42.5415 68.14 43.0715 68.31L51.7615 70.13C51.7615 70.13 51.3515 70.32 50.5315 70.91C50.9115 71.02 51.3315 71.11 51.7415 71.2C51.7515 71.19 51.7615 71.19 51.7615 71.19C51.7615 71.19 51.7615 71.19 51.7515 71.2C53.0915 71.49 54.3915 71.67 54.3915 71.67C54.3915 71.67 52.3815 72.11 49.8915 71.4C49.5315 71.67 49.2415 71.87 48.8915 72.24C50.5015 72.65 53.8715 73.39 53.8715 73.39C53.8715 73.39 52.5415 73.67 50.1915 73.29C49.5015 73.18 48.5215 72.79 48.4315 72.77C48.1415 73.09 47.9415 73.43 47.7215 73.71C49.4815 74.6 53.3615 75.11 53.3615 75.11C53.3615 75.11 51.8715 75.47 49.5315 75.04C49.1915 74.98 47.5715 74.39 47.3115 74.25C46.4815 75.55 45.9115 76.78 45.9115 76.78L44.2915 77.07L45.1115 82.64L45.5115 83.42C45.5115 83.42 46.3515 86.74 47.3215 89.09C48.3015 91.44 51.0115 94.17 51.0115 94.17C51.0115 94.17 51.4415 95.15 51.4415 95.93C51.4415 96.71 50.6815 97.79 50.6815 97.79L50.4715 97.84C50.6915 98.47 51.0815 99.76 52.4815 100.94C53.9015 102.14 57.6915 102.82 57.6915 102.82V103.41C57.6915 103.41 54.6815 103.5 52.3515 102.35C50.0515 101.22 48.9315 98.97 48.6515 98.3L46.8215 98.76C46.8915 98.93 46.9615 99.1 47.0415 99.27C47.7715 100.89 49.7915 103.58 49.7915 103.58C49.7915 103.58 48.4115 102.74 46.9815 100.66C46.6015 100.11 46.3115 99.52 46.0915 98.94L44.9915 99.22C45.0915 99.52 45.2215 99.84 45.3715 100.17C46.1015 101.79 48.1215 104.48 48.1215 104.48C48.1215 104.48 46.7415 103.64 45.3115 101.56C44.8315 100.87 44.5015 100.11 44.2715 99.4L43.1915 99.67C43.3215 100.09 43.4915 100.57 43.7115 101.06C44.4415 102.68 46.4615 105.37 46.4615 105.37C46.4615 105.37 45.0815 104.53 43.6515 102.45C43.0715 101.61 42.7115 100.67 42.4815 99.85L41.4115 100.12C41.5515 100.64 41.7515 101.28 42.0515 101.95C42.7815 103.57 44.8015 106.26 44.8015 106.26C44.8015 106.26 43.4215 105.42 41.9915 103.34C41.3015 102.35 40.9215 101.21 40.7015 100.3L36.0415 101.48L36.4715 102.85C36.4715 102.85 38.5315 103.93 39.2915 105.49C40.0515 107.05 40.7015 112.04 40.7015 112.04L42.9815 112.82C42.9815 112.82 46.2315 115.56 48.5115 116.93C50.7915 118.3 55.2415 119.96 58.1715 119.86C61.1015 119.76 63.7015 118.98 66.6315 117.42C69.5615 115.86 72.3815 113.31 72.3815 113.31L75.5315 112.23C75.5315 112.23 75.7515 108.32 76.1815 106.46C76.6115 104.6 78.0215 103.82 78.0215 103.82L80.8415 101.77L66.2915 98.07ZM50.2715 69.15C48.6015 68.79 47.4615 68.37 47.4615 68.37C47.4615 68.37 50.2315 68.78 51.1415 68.9C52.2515 69.05 56.5715 69.44 56.5715 69.44V69.96C56.5715 69.96 52.1215 69.55 50.2715 69.15ZM50.4215 90.41C50.1315 90.04 48.8915 88.12 48.3515 86.6C47.5815 84.44 47.1915 81.11 47.1315 80.34C47.0715 79.57 47.5215 79.38 47.9615 79.36C48.0715 79.35 48.2315 79.39 48.3315 79.46C48.5215 79.58 48.6615 79.75 48.7215 79.94C48.6715 79.93 48.6215 79.92 48.5815 79.93C48.1415 79.96 47.6815 80.14 47.7515 80.91C47.8115 81.68 48.1915 85.01 48.9715 87.17C49.2515 87.94 49.7015 88.82 50.1215 89.55C50.3915 90.27 50.5615 90.59 50.4215 90.41ZM51.1115 88.27C50.3415 85.92 50.0215 82.32 49.9815 81.49C49.9315 80.66 50.4315 80.47 50.9115 80.45C51.0215 80.45 51.2015 80.49 51.3115 80.56C51.4915 80.68 51.6315 80.84 51.7015 81.03C51.6415 81.02 51.5815 81.01 51.5315 81.01C51.0615 81.03 50.5615 81.22 50.6015 82.05C50.6515 82.88 50.9615 86.48 51.7315 88.83C52.0115 89.69 52.5015 90.68 52.9415 91.48C53.2115 92.28 53.3815 92.62 53.2315 92.42C52.9315 92.03 51.6515 89.92 51.1115 88.27ZM54.4915 89.86C54.7415 90.77 55.1815 91.81 55.5915 92.67C55.8415 93.61 56.0315 94.03 55.8815 93.8C55.5815 93.36 54.3515 91.07 53.8715 89.3C53.1915 86.78 53.0615 82.94 53.0615 82.06C53.0615 81.18 53.6015 81 54.1015 81C54.2215 81 54.4015 81.06 54.5115 81.14C54.6815 81.26 54.8015 81.42 54.8715 81.59C54.8115 81.58 54.7615 81.57 54.7215 81.57C54.2215 81.57 53.6815 81.75 53.6815 82.63C53.6915 83.5 53.8115 87.33 54.4915 89.86ZM54.5215 97.26C52.7915 96.48 51.8515 95.12 51.8515 95.12L51.7015 94.62C51.7015 94.62 52.7115 95.63 53.9915 96.45C54.9215 97.05 57.0215 97.84 57.0215 97.84C57.0215 97.84 56.0015 97.93 54.5215 97.26ZM57.8815 79.63C57.1315 79.69 53.8715 79.62 51.6215 79.16C48.7315 78.57 46.9215 77.72 46.9215 77.72C46.9215 77.72 50.0715 78.38 52.4815 78.5C53.9515 78.58 55.8915 78.68 56.5715 78.6C56.5815 78.32 56.6015 78.05 56.6215 77.78C57.6515 77.79 59.3115 77.76 60.8115 77.68C63.5915 77.54 65.1715 77.23 65.1715 77.23C65.1715 77.23 61.4815 77.01 60.5015 76.92C59.3415 76.81 58.6615 76.72 57.9415 76.55C57.8915 72 57.8315 69.42 57.8315 69.42C57.8315 69.42 60.5215 69.18 61.7115 69.02C62.9015 68.86 66.5215 68.28 66.5215 68.28L61.0315 69.88C61.0315 69.88 64.3015 71.06 65.5415 72.29C66.7915 73.53 66.7915 73.53 66.7915 73.53C66.7915 73.53 64.6715 71.85 61.8015 71.17C58.9315 70.5 62.5415 71.04 66.9115 75.1C68.3315 76.42 69.6515 78.81 69.6515 78.81C69.6515 78.81 70.0115 85.51 67.0315 90.15C63.5315 95.61 59.8015 96.66 59.8015 96.66L63.9315 95.15C63.9315 95.15 58.0615 98.5 58.0515 98.04C57.8815 90.18 57.8815 84.85 57.8815 79.63ZM54.1015 113.66C54.7615 113.66 55.2915 114.16 55.2915 114.78C55.2915 115.4 54.7615 115.9 54.1015 115.9C53.4415 115.9 52.9115 115.4 52.9115 114.78C52.9115 114.16 53.4415 113.66 54.1015 113.66ZM46.7915 109.4C47.4515 109.4 47.9815 109.9 47.9815 110.52C47.9815 111.14 47.4515 111.64 46.7915 111.64C46.1315 111.64 45.6015 111.14 45.6015 110.52C45.6015 109.9 46.1315 109.4 46.7915 109.4ZM56.5915 118.01C53.8515 118.01 51.3015 116.48 49.2515 115.25C47.2615 114.05 44.5315 111.79 44.1315 111.46L41.9015 110.69L41.8815 110.52C41.8715 110.47 41.2715 105.93 40.6015 104.53C39.9615 103.21 38.3815 102.72 38.3615 102.71L37.9315 101.85C38.0115 101.87 40.4115 102.75 41.1615 104.3C41.8015 105.63 42.3515 109.42 42.4715 110.28L44.4615 110.96L44.5015 111C44.5315 111.03 47.5215 113.53 49.5815 114.77C51.6215 116 54.1615 117.52 56.8015 117.44L56.8215 118C56.7615 118.01 56.6715 118.01 56.5915 118.01ZM74.8515 104.93C74.4515 106.65 74.2515 110.27 74.2515 110.27L71.3415 111.27C71.3415 111.27 68.7315 113.62 66.0215 115.07C63.3115 116.52 60.9015 117.34 58.1815 117.33C57.7915 117.33 57.8115 114.57 57.9415 111.49C57.9315 111.49 57.9115 111.49 57.9015 111.49C56.2515 111.49 54.9115 109.98 54.9115 108.12C54.9115 106.26 56.2515 104.75 57.9015 104.75C58.0115 104.75 58.1215 104.76 58.2315 104.77C56.7415 104.96 55.5815 106.39 55.5815 108.12C55.5815 109.61 56.4415 110.88 57.6315 111.32C57.2415 110.85 56.9815 110.02 56.9815 109.07C56.9815 107.6 57.6115 106.41 58.3815 106.41C59.1515 106.41 59.7815 107.6 59.7815 109.07C59.7815 110.11 59.4615 111.02 59.0015 111.45C60.4515 111.21 61.5615 109.81 61.5615 108.12C61.5615 106.26 60.2215 104.75 58.5715 104.75C58.5015 104.75 58.4315 104.75 58.3615 104.76C58.4315 103.79 58.4815 103.18 58.4815 103.18C58.4815 103.18 60.5015 102.63 61.8315 101.68C63.4015 100.55 64.1715 98.24 64.1715 98.24C64.1715 98.24 64.3915 99.78 63.1615 101.4C62.7915 101.88 62.2615 102.33 61.6915 102.73C63.2215 102.01 64.5415 100.98 65.5615 99.69L65.8815 99.28L67.1715 99.6C65.8415 101.79 63.4215 105.3 63.4215 105.3C63.4215 105.3 65.3815 104.11 67.4315 101.21C67.8315 100.64 68.1315 100.21 68.3415 99.88L69.7315 100.23C69.7215 100.25 69.7115 100.28 69.7015 100.3C68.6415 102.56 65.7615 106.32 65.7615 106.32C65.7615 106.32 67.7215 105.13 69.7715 102.23C70.3215 101.45 70.6715 100.9 70.8815 100.51L72.0815 100.81C72.0715 100.83 72.0615 100.86 72.0515 100.88C70.9915 103.14 68.1115 106.9 68.1115 106.9C68.1115 106.9 70.0715 105.71 72.1215 102.81C72.6715 102.03 73.0215 101.48 73.2415 101.09L74.4215 101.38C74.4115 101.41 74.4015 101.43 74.3815 101.45C73.3215 103.71 70.4415 107.47 70.4415 107.47C70.4415 107.47 72.4015 106.28 74.4515 103.38C75.0115 102.58 75.3815 102.04 75.6215 101.67L77.3615 102.1C77.3315 102.13 75.2515 103.21 74.8515 104.93Z" fill="white"/>
<path d="M63.1216 79.16C66.0116 78.57 67.8216 77.72 67.8216 77.72C67.8216 77.72 64.0116 78.32 62.0116 78.49C60.1516 78.64 57.8916 78.62 57.8916 78.62V79.63C57.8816 79.63 60.2316 79.75 63.1216 79.16Z" fill="white"/>
<path d="M67.0317 77.09C67.0317 77.09 65.6117 74.73 63.6717 73.41C61.7217 72.09 60.2617 71.87 60.2617 71.87C60.2617 71.87 62.9217 73.52 64.1117 74.71C65.3217 75.91 65.9717 77.19 65.9717 77.19L67.0317 77.09Z" fill="white"/>
<path d="M46.8017 111.37C46.8617 111.37 46.9117 111.36 46.9717 111.35C46.6017 111.27 46.3317 110.94 46.3317 110.53C46.3317 110.13 46.6117 109.79 46.9717 109.71C46.9217 109.7 46.8617 109.69 46.8017 109.69C46.3517 109.69 45.9917 110.06 45.9917 110.52C45.9917 110.99 46.3517 111.37 46.8017 111.37Z" fill="white"/>
<path d="M54.0615 115.61C54.1215 115.61 54.1715 115.6 54.2315 115.59C53.8615 115.51 53.5915 115.18 53.5915 114.77C53.5915 114.37 53.8715 114.03 54.2315 113.95C54.1815 113.94 54.1215 113.93 54.0615 113.93C53.6115 113.93 53.2515 114.3 53.2515 114.76C53.2515 115.24 53.6115 115.61 54.0615 115.61Z" fill="white"/>
<path d="M61.3316 113.66C60.6716 113.66 60.1416 114.16 60.1416 114.78C60.1416 115.4 60.6716 115.9 61.3316 115.9C61.9916 115.9 62.5216 115.4 62.5216 114.78C62.5216 114.16 61.9916 113.66 61.3316 113.66ZM61.4916 115.59C61.4416 115.6 61.3816 115.61 61.3216 115.61C60.8716 115.61 60.5116 115.24 60.5116 114.78C60.5116 114.32 60.8716 113.95 61.3216 113.95C61.3816 113.95 61.4316 113.96 61.4916 113.97C61.1216 114.05 60.8516 114.38 60.8516 114.79C60.8516 115.18 61.1316 115.51 61.4916 115.59Z" fill="white"/>
<path d="M68.6417 109.4C67.9817 109.4 67.4517 109.9 67.4517 110.52C67.4517 111.14 67.9817 111.64 68.6417 111.64C69.3017 111.64 69.8317 111.14 69.8317 110.52C69.8317 109.9 69.3017 109.4 68.6417 109.4ZM68.8817 111.35C68.8317 111.36 68.7717 111.37 68.7117 111.37C68.2617 111.37 67.9017 111 67.9017 110.54C67.9017 110.08 68.2617 109.71 68.7117 109.71C68.7717 109.71 68.8217 109.72 68.8817 109.73C68.5117 109.81 68.2417 110.14 68.2417 110.55C68.2417 110.93 68.5217 111.27 68.8817 111.35Z" fill="white"/>
<path d="M61.3715 80.78C61.2415 80.78 61.0415 80.84 60.9215 80.92C60.6015 81.13 60.4315 81.46 60.4415 81.79C60.4615 82.76 60.6415 85.33 60.4615 88.28C60.2415 91.99 59.1215 94.04 59.4515 93.59C59.7815 93.15 61.1015 90.86 61.6215 89.08C62.3615 86.56 62.4915 82.72 62.4915 81.84C62.5015 80.97 61.9115 80.78 61.3715 80.78Z" fill="white"/>
<path d="M64.8216 80.25C64.7016 80.25 64.5116 80.29 64.3916 80.36C64.0816 80.55 63.9016 80.85 63.8916 81.16C63.8616 82.07 63.8816 84.5 63.5516 87.27C63.1416 90.75 61.9716 92.63 62.3016 92.23C62.6316 91.83 64.0116 89.72 64.5916 88.07C65.4216 85.72 65.7616 82.12 65.8116 81.29C65.8716 80.46 65.3316 80.27 64.8216 80.25Z" fill="white"/>
<path d="M67.1115 79.98C67.0515 80.82 67.0115 83.07 66.6315 85.63C66.1615 88.85 65.0215 90.57 65.3415 90.2C65.6615 89.83 66.9915 87.91 67.5815 86.39C68.4115 84.23 68.8315 80.9 68.8915 80.13C68.9615 79.36 68.4615 79.17 67.9915 79.15C67.8815 79.14 67.7015 79.18 67.5915 79.25C67.3015 79.42 67.1315 79.69 67.1115 79.98Z" fill="white"/>
<path d="M80.9514 49.03L80.6814 48.74L83.5914 45.36C83.4314 44.69 83.1414 44.04 82.7114 43.46C81.7014 42.1 80.3414 40.56 78.6414 39.23C74.4914 35.98 72.0214 35.25 72.0214 35.25L71.4214 36.11C73.2014 36.8 74.1014 37.58 74.1014 37.58C74.1014 37.58 72.5714 37.04 71.0514 36.65L70.6514 37.22C72.4414 37.91 73.3514 38.7 73.3514 38.7C73.3514 38.7 71.8114 38.16 70.2714 37.76L69.8714 38.33C71.6814 39.02 72.5914 39.82 72.5914 39.82C72.5914 39.82 71.0314 39.27 69.4914 38.87L69.3514 39.07C69.0414 39.52 69.2114 40.13 69.7014 40.36L69.7214 40.37C69.7214 40.37 73.3914 41.44 75.2714 42.99C78.0414 45.27 79.0514 47.32 79.0514 47.32C79.0514 47.32 76.8514 45.53 74.9214 44.24C74.5414 45.11 73.9714 46.12 73.5214 45.63C72.7714 44.82 71.0214 44.13 71.0214 44.13L72.1614 42.67C70.6414 41.93 69.2914 41.4 69.0114 41.29L67.4714 43.32C67.2714 43.58 67.3814 43.96 67.6814 44.08H67.6914C67.6914 44.08 71.0314 44.85 72.7014 46.07C75.1914 47.89 76.0514 49.59 76.0514 49.59C76.0514 49.59 73.8814 48.03 72.0014 46.96C71.7314 47.76 71.0614 49.48 70.5614 48.9C69.9114 48.15 68.4014 47.5 68.4014 47.5L69.6014 45.83C68.4014 45.35 67.4114 45.04 67.0414 44.92L65.4214 47.02C65.2514 47.25 65.3314 47.58 65.5914 47.69H65.6014C65.6014 47.69 68.5814 48.41 70.0914 49.55C72.2914 51.2 73.0614 52.73 73.0614 52.73C73.0614 52.73 70.8814 51.19 69.1214 50.15C68.8314 50.92 68.2714 52.17 67.8514 51.69C67.2414 51.01 65.8314 50.43 65.8314 50.43L66.8714 49.04C65.9214 48.66 65.1814 48.49 65.0214 48.45L63.6914 50.12C63.5414 50.31 63.5914 50.58 63.7914 50.71H63.8014C63.8014 50.71 66.1814 51.55 67.3714 52.55C69.3114 54.16 70.0214 55.61 70.0214 55.61C70.0214 55.61 67.9514 53.59 66.4714 52.73C66.3014 53.26 65.6914 54.98 65.2514 54.46C64.7314 53.85 63.5014 53.33 63.5014 53.33L64.5314 51.9C64.0014 51.69 63.5714 51.53 63.3014 51.43C62.9014 52.02 62.3714 52.85 62.1214 53.4C62.8514 53.81 63.6514 54.38 64.3114 55.13C65.9814 57.01 66.4814 58.55 66.4814 58.55C66.4814 58.55 64.3514 55.95 62.9414 54.86C62.5714 54.57 62.2114 54.33 61.8714 54.12C62.2514 55.5 62.6714 57.3 62.7714 58.75C62.8814 60.45 62.4914 62.83 62.3514 63.31C62.2214 63.79 62.5214 61.68 61.5714 58.38C61.2014 57.08 60.7814 55.89 60.4214 54.92L57.2614 54.73L52.7114 64.62L53.2314 65.94C53.3814 66.33 53.7514 66.6 54.1714 66.63L54.3114 66.64C54.4914 66.4 54.6814 66.14 54.8614 65.86C55.8114 64.36 56.9414 61.19 56.9414 61.19C56.9414 61.19 56.9914 62.81 56.0514 65.14C55.8214 65.71 55.5214 66.24 55.1914 66.7L55.9914 66.78C56.2014 66.51 56.4214 66.2 56.6314 65.87C57.5814 64.37 58.7114 61.2 58.7114 61.2C58.7114 61.2 58.7614 62.82 57.8214 65.15C57.5714 65.77 57.2314 66.34 56.8714 66.84L57.5514 66.89C57.7914 66.59 58.0514 66.24 58.2914 65.86C59.2414 64.36 60.3714 61.19 60.3714 61.19C60.3714 61.19 60.4214 62.81 59.4814 65.14C59.2114 65.81 58.8414 66.42 58.4414 66.95L60.6714 67.12C61.2614 67.16 61.8514 67.09 62.4114 66.91C63.2914 66.62 64.0114 65.98 65.1914 64.97C65.5814 64.64 66.3614 63.91 66.9814 63.18C67.6914 62.35 68.8114 60.98 68.8114 60.98L71.5314 57.44C71.7214 57.66 72.0614 57.67 72.2614 57.45L74.4814 55C74.6714 55.25 75.0314 55.26 75.2314 55.03L77.8914 52.08C78.2114 52.48 78.8114 52.48 79.1314 52.08L80.9914 49.76C81.3914 50.26 82.1514 50.27 82.5614 49.77C83.3814 48.77 83.7614 47.54 83.7114 46.31L80.9514 49.03ZM76.2614 42.47C75.5114 41.6 73.7714 40.85 73.7714 40.85L75.7014 38.17L78.0714 39.78C78.0814 39.78 77.0114 43.35 76.2614 42.47ZM57.0714 58.18C56.5614 58.16 57.3114 56.67 57.6614 56.32L60.0214 56.53L60.4514 58.34C60.4514 58.34 57.8714 58.21 57.0714 58.18ZM67.4114 59.81L67.1714 59.55L70.0514 56.12L70.4114 56.8L67.4114 59.81ZM70.8914 56.74L70.6514 56.48L73.5314 53.05L73.8914 53.73L70.8914 56.74ZM74.2514 54.12L74.0114 53.86L76.8914 50.43L77.2514 51.11L74.2514 54.12ZM77.5514 51.51L77.3114 51.25L80.1914 47.82L80.5514 48.5L77.5514 51.51Z" fill="white"/>
<path d="M53.0513 53.48L52.0513 52.47C52.0513 52.7 52.0413 52.94 52.0113 53.18C51.7613 55.69 50.9613 57.09 50.9613 57.09C50.9613 57.09 51.4313 53.76 51.2913 51.99C51.2813 51.88 51.2713 51.77 51.2613 51.66L50.6213 51.01C50.6213 51.25 50.6113 51.49 50.5813 51.74C50.3313 54.25 49.5313 55.65 49.5313 55.65C49.5313 55.65 50.0013 52.32 49.8613 50.55C49.8513 50.43 49.8413 50.32 49.8313 50.2L49.2013 49.56C49.2013 49.81 49.1913 50.06 49.1613 50.31C48.9113 52.82 48.1113 54.22 48.1113 54.22C48.1113 54.22 48.5813 50.89 48.4413 49.12C48.4313 48.99 48.4213 48.87 48.4013 48.75L47.7713 48.11C47.7713 48.36 47.7613 48.62 47.7413 48.88C47.4913 51.39 46.6913 52.79 46.6913 52.79C46.6913 52.79 47.1613 49.46 47.0213 47.69C47.0113 47.56 47.0013 47.43 46.9813 47.3L46.3513 46.66C46.3513 46.92 46.3413 47.18 46.3213 47.45C46.0713 49.96 45.2713 51.36 45.2713 51.36C45.2713 51.36 45.7413 48.03 45.6013 46.26C45.5913 46.12 45.5713 45.98 45.5613 45.84L44.9313 45.2C44.9313 45.47 44.9213 45.74 44.9013 46.01C44.6513 48.52 43.8513 49.92 43.8513 49.92C43.8513 49.92 44.3213 46.59 44.1813 44.82C44.1713 44.67 44.1513 44.53 44.1413 44.38C43.4213 43.67 42.4613 43.25 41.4513 43.2C41.4513 43.2 41.6013 45.22 41.0913 45.89C40.5613 46.59 39.3413 47.06 38.4713 46.91C37.6013 46.76 37.2313 46.18 37.2313 46.18C37.0513 47.06 37.2513 47.97 37.8013 48.68L49.3213 63.66L49.9413 64.93C50.1213 65.31 50.5113 65.55 50.9313 65.55L56.5913 53.4L53.0513 53.48ZM49.9013 59.5C49.5713 59.84 49.0713 60.06 48.4013 59.4C47.7313 58.74 44.8813 55.77 43.4113 53.41C42.3713 51.76 41.4413 49.21 41.3013 48.67C41.1613 48.14 42.0413 50.37 44.7413 53.3C46.8913 55.63 48.9613 57.46 49.7113 58.17C49.9713 58.42 50.1113 58.77 50.0813 59.12C50.0613 59.25 49.9813 59.42 49.9013 59.5Z" fill="white"/>
<path d="M40.3214 44.52C40.5514 43.88 39.8214 41.09 39.8214 41.09L39.4114 39.49L39.5414 39.04C40.1314 39.1 41.3214 39.2 41.8214 39.12C42.5014 39.02 43.5714 39.24 44.2514 37.84C44.7914 36.71 43.3314 34.73 43.3314 34.73L42.2714 33.64L76.4814 3.2L77.1115 0L73.8615 0.68L40.2314 31.55L38.6614 29.94C38.2314 29.5 37.9814 28.93 37.9514 28.32C38.2614 27.97 38.4514 27.51 38.4514 27C38.4514 25.9 37.5614 25.01 36.4614 25.01C35.3614 25.01 34.4714 25.9 34.4714 27C34.4714 27.78 34.9214 28.46 35.5814 28.78C35.6614 29.05 35.7514 29.32 35.8814 29.57C36.1614 30.14 37.4114 31.48 38.7114 32.93L38.4914 33.13L37.0014 31.74C36.7814 31.53 36.4814 31.42 36.1714 31.43L35.3214 31.46L35.1614 31.2C35.0014 30.94 34.7114 30.79 34.4114 30.82C34.4114 30.82 33.1514 30.83 32.5214 31.56C32.0514 32.11 31.7914 33.97 31.7914 33.97C31.7914 33.97 30.8914 34.15 30.5514 34.57C30.2114 34.98 30.3214 35.35 30.3814 35.69L30.5114 36.41L29.9014 36.55C29.4614 36.65 29.1714 37.06 29.2014 37.5C29.2014 37.5 29.4214 38.71 29.6914 39.1C29.6914 39.1 29.0914 39.42 29.0014 39.83C28.9114 40.24 29.1414 40.65 29.6014 41.16C29.6214 41.18 29.6414 41.21 29.6614 41.23L29.0514 41.79C28.9314 41.77 28.8114 41.76 28.6914 41.76C27.4714 41.76 26.4814 42.75 26.4814 43.97C26.4814 45.19 27.4714 46.18 28.6914 46.18C29.9114 46.18 30.9014 45.19 30.9014 43.97C30.9014 43.9 30.9014 43.83 30.8914 43.76C30.9014 43.74 30.9014 43.72 30.9114 43.71L31.3314 43.34L32.9914 42.09C32.9914 42.09 33.4014 43.6 34.0414 44.01C34.6814 44.42 36.1914 45.06 36.1914 45.06C36.1914 45.06 36.2414 45.06 37.5214 45.38C38.8114 45.71 40.0914 45.16 40.3214 44.52ZM74.8314 1.23L75.6014 1.7L40.8314 32.49L40.6614 32.09L74.8314 1.23ZM40.6414 35.07C41.1914 35.68 41.5714 36.08 41.5714 36.08C41.5714 36.08 41.9314 36.52 41.8114 36.95C41.6814 37.46 40.5814 37.49 39.9214 37.47C39.9314 37.27 39.9314 37.07 39.8914 36.87L39.7114 35.89L40.6414 35.07ZM36.7614 26.89C36.2914 26.89 35.9214 26.62 35.9214 26.28C35.9214 25.94 36.3014 25.67 36.7614 25.67C37.2314 25.67 37.6014 25.94 37.6014 26.28C37.6014 26.62 37.2214 26.89 36.7614 26.89ZM28.6014 43.85C28.1314 43.85 27.7614 43.58 27.7614 43.24C27.7614 42.9 28.1414 42.63 28.6014 42.63C29.0614 42.63 29.4414 42.9 29.4414 43.24C29.4414 43.57 29.0614 43.85 28.6014 43.85ZM32.6814 33.25C32.7114 33.16 32.7914 33.05 32.8614 33C33.1514 32.79 33.5414 32.68 33.9214 33.21C33.9714 33.28 34.0314 33.43 34.1014 33.64L32.9914 34.42C32.9414 34.25 32.8914 34.1 32.7814 33.95C32.6414 33.76 32.5914 33.5 32.6814 33.25ZM31.2914 35.48C31.4814 35.18 31.7614 34.9 32.1314 35.13C32.2014 35.17 32.3214 35.36 32.4614 35.59L31.6014 36.49C31.5414 36.4 31.4814 36.32 31.3914 36.27C31.2514 36.19 31.1714 36.01 31.1914 35.78C31.2014 35.68 31.2414 35.55 31.2914 35.48ZM30.3014 37.46C30.4514 37.13 30.6814 36.82 31.0814 36.99C31.1614 37.03 31.3214 37.21 31.5114 37.45L30.6314 38.33C30.5914 38.29 30.5514 38.25 30.5014 38.22C30.3514 38.16 30.2514 37.99 30.2414 37.76C30.2414 37.67 30.2714 37.54 30.3014 37.46ZM30.5114 40.33C30.4614 40.32 30.4114 40.3 30.3614 40.31C30.2314 40.32 30.1014 40.26 30.0114 40.13C29.9814 40.08 29.9414 39.99 29.9414 39.94C29.9214 39.7 29.9714 39.43 30.3114 39.4C30.4014 39.39 30.7014 39.49 31.0314 39.62L30.5114 40.33ZM32.0614 40.63C31.6414 40.64 31.3714 40.59 31.1514 40.52L31.6214 39.87C32.3114 40.22 32.8714 40.62 32.0614 40.63ZM32.1614 39.72C31.5414 39.39 31.2514 39.07 31.0514 38.81L31.8914 37.97C32.5714 38.97 33.2414 40.31 32.1614 39.72ZM32.8114 37.97C32.3214 37.61 32.0914 37.31 31.9314 37.05L32.7714 36.17C33.3114 37.26 33.8114 38.7 32.8114 37.97ZM34.0214 36.94C33.5014 36.1 33.3014 35.55 33.1814 35.12L34.2914 34.34C34.7114 36 35.1014 38.68 34.0214 36.94ZM36.8914 42.85C35.9214 40.11 35.9014 40.46 35.7114 39.65C35.6314 39.31 35.5014 38.96 35.7414 38.53C35.8314 38.37 36.0214 38.16 36.1714 38.06C36.3014 37.97 36.4314 37.89 36.5714 37.82C36.0814 36.03 35.9014 35.12 35.4414 34.48C35.2314 34.19 35.1514 33.82 35.2514 33.48C35.2914 33.35 35.3914 33.2 35.4914 33.14C35.8814 32.87 36.4114 32.74 36.9514 33.51C37.3214 34.04 38.3714 37.95 38.2914 39.22C38.5114 41.82 37.8414 45.54 36.8914 42.85Z" fill="white"/>
</svg>
