<svg width="274" height="63" viewBox="0 0 274 63" fill="none" xmlns="http://www.w3.org/2000/svg">
<g class="icon animationgroup">
<path class="circle circle-2" d="M7.22,27.16A45.4,45.4,0,0,0,87.8,69"/>
<path class="letter letter-1" d="M47.82,45.4c-6-1.91-12.09-3.73-12.43-8.56a7.69,7.69,0,0,1,5.8-8.49"/>
<path class="circle circle-1" d="M88.22,68.05A45.4,45.4,0,0,0,7.64,26.24"/>
<path class="line line-1" d="M7.26,27.2a40.68,40.68,0,0,0,81.2,1.24"/>
<path class="line line-2" d="M88,68.45A40.68,40.68,0,0,0,6.74,66"/>
<path class="letter letter-2" d="M44.51,65.92c7.18-.13,15.65-3.67,15.1-12-.32-4.79-6-6.71-11.79-8.55"/>
</g>
<path d="M126.904 10.5105H118.593V41.7375H126.904V10.5105Z" fill="white"/>
<path fill-rule="evenodd" clip-rule="evenodd" d="M165.402 10.5105L154.296 34.8075L143.19 10.5105H134.658L148.938 41.7375H159.655L173.923 10.5105H165.402Z" fill="white"/>
<path d="M189.831 10.5105H181.52V41.7375H189.831V10.5105Z" fill="white"/>
<path fill-rule="evenodd" clip-rule="evenodd" d="M230.987 10.5105H197.007V14.301H209.836V41.7375H218.148V14.301H230.987V10.5105Z" fill="white"/>
<path fill-rule="evenodd" clip-rule="evenodd" d="M238.101 10.5105V41.7375H246.412V30.3345H265.345V41.7375H273.656V10.5105H238.101ZM246.412 26.481V14.301H265.345V26.481H246.412Z" fill="white"/>
<path fill-rule="evenodd" clip-rule="evenodd" d="M108.149 14.301V10.5105H73.0662V28.0035V28.014L99.8381 28.0035V37.863H73.0662V41.7375H108.149V24.1815V24.1605H81.3877V14.301H108.149Z" fill="white"/>
<path d="M80.5157 61.173H80.5472V52.2271H81.6189V62.727H80.2845L74.1694 53.697H74.1379V62.727H73.0662V52.2271H74.4006L80.5157 61.173Z" fill="white"/>
<path d="M85.8218 62.7375H84.645L89.1841 52.2375H90.2243L94.7318 62.7375H93.5445L92.3887 59.976H86.9566L85.8218 62.7375ZM87.3664 58.9995H92L89.6884 53.424L87.3664 58.9995Z" fill="white"/>
<path d="M100.248 62.7375H99.1761V53.1826H95.6562V52.2375H103.757V53.1826H100.237V62.7375H100.248Z" fill="white"/>
<path d="M107.887 62.7375H106.815V52.2375H107.887V62.7375Z" fill="white"/>
<path d="M115.389 61.3515H115.42L118.835 52.2271H119.98L115.956 62.727H114.832L110.829 52.2271H111.984L115.389 61.3515Z" fill="white"/>
<path d="M123.962 61.782H129.584V62.727H122.891V52.2271H129.405V53.172H123.962V56.7735H129.058V57.7185H123.962V61.782Z" fill="white"/>
<path d="M147.214 61.0261C147.036 61.2886 146.826 61.5406 146.573 61.7821C146.321 62.0236 146.027 62.2336 145.701 62.4121C145.365 62.5906 145.008 62.7376 144.598 62.8426C144.199 62.9476 143.758 63.0001 143.285 63.0001C142.497 63.0001 141.761 62.8636 141.089 62.5801C140.416 62.3071 139.838 61.9186 139.355 61.4356C138.872 60.9421 138.494 60.3646 138.22 59.6926C137.947 59.0206 137.811 58.2856 137.811 57.4876C137.811 56.6896 137.947 55.9546 138.231 55.2826C138.504 54.6106 138.893 54.0331 139.376 53.5396C139.87 53.0461 140.448 52.6681 141.11 52.3951C141.782 52.1221 142.507 51.9751 143.285 51.9751C143.673 51.9751 144.052 52.0171 144.419 52.1011C144.787 52.1851 145.134 52.2901 145.47 52.4371C145.796 52.5841 146.09 52.7626 146.363 52.9621C146.626 53.1616 146.857 53.3926 147.036 53.6551L146.143 54.3061C146.038 54.1381 145.89 53.9701 145.701 53.8021C145.523 53.6341 145.302 53.4871 145.06 53.3611C144.808 53.2351 144.546 53.1301 144.251 53.0461C143.957 52.9621 143.642 52.9306 143.306 52.9306C142.623 52.9306 142.013 53.0566 141.477 53.2981C140.942 53.5501 140.479 53.8756 140.101 54.2956C139.723 54.7156 139.439 55.1986 139.24 55.7551C139.04 56.3116 138.945 56.8891 138.945 57.4981C138.945 58.1071 139.05 58.6951 139.25 59.2411C139.45 59.7976 139.744 60.2806 140.122 60.7006C140.5 61.1206 140.952 61.4566 141.499 61.6981C142.034 61.9396 142.644 62.0656 143.316 62.0656C143.915 62.0656 144.493 61.9396 145.039 61.6981C145.586 61.4461 146.038 61.0576 146.405 60.5116L147.214 61.0261Z" fill="white"/>
<path d="M160.747 57.4771C160.747 58.2751 160.611 59.0206 160.327 59.6821C160.054 60.3541 159.665 60.9316 159.182 61.4251C158.688 61.9186 158.11 62.2966 157.448 62.5696C156.776 62.8426 156.051 62.9896 155.273 62.9896C154.496 62.9896 153.771 62.8531 153.098 62.5696C152.426 62.2966 151.848 61.9081 151.365 61.4251C150.871 60.9316 150.493 60.3541 150.219 59.6821C149.946 59.0101 149.799 58.2751 149.799 57.4771C149.799 56.6791 149.936 55.9441 150.219 55.2721C150.493 54.6001 150.881 54.0226 151.365 53.5291C151.858 53.0356 152.436 52.6576 153.098 52.3846C153.771 52.1116 154.496 51.9646 155.273 51.9646C156.051 51.9646 156.776 52.1011 157.448 52.3846C158.121 52.6576 158.699 53.0461 159.182 53.5291C159.676 54.0226 160.054 54.6001 160.327 55.2721C160.611 55.9441 160.747 56.6791 160.747 57.4771ZM159.623 57.4876C159.623 56.8786 159.529 56.2906 159.329 55.7446C159.129 55.1881 158.846 54.7051 158.467 54.2851C158.089 53.8651 157.637 53.5291 157.091 53.2876C156.555 53.0356 155.946 52.9201 155.273 52.9201C154.601 52.9201 153.991 53.0461 153.456 53.2876C152.92 53.5396 152.457 53.8651 152.079 54.2851C151.701 54.7051 151.417 55.1881 151.218 55.7446C151.018 56.3011 150.923 56.8786 150.923 57.4876C150.923 58.0966 151.018 58.6846 151.218 59.2306C151.417 59.7766 151.701 60.2701 152.079 60.6796C152.457 61.0996 152.909 61.4251 153.456 61.6771C153.991 61.9291 154.601 62.0446 155.273 62.0446C155.946 62.0446 156.555 61.9186 157.091 61.6771C157.627 61.4251 158.089 61.0996 158.467 60.6796C158.846 60.2701 159.129 59.7766 159.329 59.2306C159.518 58.6846 159.623 58.0966 159.623 57.4876Z" fill="white"/>
<path d="M169.658 60.921H169.668L173.188 52.2271H174.817V62.727H173.745V53.6025H173.713L169.91 62.727H169.342L165.539 53.6025H165.507V62.727H164.436V52.2271H166.064L169.658 60.921Z" fill="white"/>
<path d="M179.093 52.2271H182.066C182.602 52.2271 183.085 52.2796 183.516 52.3951C183.947 52.5106 184.325 52.6785 184.64 52.9095C184.956 53.1405 185.187 53.4345 185.355 53.781C185.523 54.1275 185.607 54.5475 185.607 55.02C185.607 55.4925 185.523 55.9125 185.344 56.259C185.166 56.6055 184.924 56.8995 184.619 57.1305C184.304 57.3615 183.937 57.54 183.495 57.6555C183.054 57.771 182.571 57.834 182.035 57.834H180.164V62.7165H179.093V52.2271ZM180.164 56.952H181.972C182.812 56.952 183.453 56.784 183.884 56.4585C184.315 56.133 184.535 55.6605 184.535 55.0305C184.535 54.3795 184.315 53.8965 183.863 53.6025C183.411 53.298 182.781 53.151 181.972 53.151H180.164V56.952Z" fill="white"/>
<path d="M188.223 62.7375H187.047L191.586 52.2375H192.626L197.133 62.7375H195.946L194.79 59.976H189.358L188.223 62.7375ZM189.768 58.9995H194.402L192.09 53.424L189.768 58.9995Z" fill="white"/>
<path d="M207.619 61.173H207.651V52.2271H208.723V62.727H207.388L201.273 53.697H201.242V62.727H200.17V52.2271H201.504L207.619 61.173Z" fill="white"/>
<path d="M216.603 62.7375H215.531V58.212L211.602 52.2375H212.936L216.099 57.33L219.293 52.2375H220.543L216.613 58.212V62.7375H216.603Z" fill="white"/>
</svg>
